<svg width="151" height="149" viewBox="0 0 151 149" fill="none" xmlns="http://www.w3.org/2000/svg">
<g clip-path="url(#clip0_843_748)">
<path d="M58.5831 88.4494C34.5122 82.7359 19.5817 58.522 25.3003 34.4725C31.0189 10.423 55.2543 -4.49436 79.3252 1.21919C86.3175 2.8865 92.8079 6.20444 98.2521 10.8948C103.696 15.5852 107.936 21.5113 110.615 28.1763L110.132 28.3698C107.484 21.7819 103.294 15.9243 97.913 11.2881C92.5318 6.65195 86.1165 3.37236 79.2051 1.72432C55.4131 -3.923 31.4582 10.8217 25.8059 34.5925C20.1535 58.3633 34.9113 82.2969 58.7032 87.9443C65.3258 89.539 72.2282 89.578 78.8683 88.0581C85.5085 86.5382 91.7055 83.5008 96.9726 79.1846L97.3005 79.5871C91.9717 83.9539 85.7022 87.0269 78.9843 88.5646C72.2664 90.1023 65.2832 90.0629 58.5831 88.4494Z" fill="#D9D9D9"/>
<path d="M139.626 63.0175H103.662C101.713 63.0175 100.126 60.8156 100.126 58.1092V21.193C100.126 18.4867 101.713 16.2847 103.662 16.2847H147.464C149.414 16.2847 151 18.4867 151 21.193V47.2298C151 55.9353 145.898 63.0175 139.626 63.0175Z" fill="#F2F2F2"/>
<path d="M74.486 143.256H77.3541L80.1413 121.704H73.6454L74.486 143.256Z" fill="#C86D50"/>
<path d="M73.5501 141.294L78.1321 141.021V142.982L82.4882 145.988C82.7034 146.136 82.8654 146.349 82.9507 146.596C83.036 146.843 83.04 147.111 82.9622 147.36C82.8843 147.61 82.7288 147.828 82.5182 147.983C82.3075 148.138 82.0529 148.221 81.7914 148.221H76.3365L75.3963 146.281L75.0291 148.221H72.9724L73.5501 141.294Z" fill="#232323"/>
<path d="M31.9001 136.421L34.5167 137.594L45.8915 119.071L39.9652 116.414L31.9001 136.421Z" fill="#C86D50"/>
<path d="M31.8504 134.248L36.1427 135.873L35.3389 137.662L38.0815 142.186C38.2169 142.41 38.2774 142.671 38.254 142.931C38.2306 143.191 38.1245 143.437 37.9513 143.633C37.7781 143.828 37.5469 143.964 37.2913 144.019C37.0357 144.074 36.7691 144.046 36.5306 143.939L31.5538 141.707L31.491 139.553L30.3611 141.173L28.4846 140.331L31.8504 134.248Z" fill="#232323"/>
<path d="M52.5351 74.6796L65.8013 72.8824C65.8013 72.8824 82.8559 112.29 82.1419 132.442L71.3193 133.776C71.3193 133.776 71.4017 125.513 72.0021 124.88C72.6024 124.248 73.3431 125.052 72.6024 123.244C71.8618 121.436 71.2675 120.979 72.1572 120.098C73.0468 119.216 62.5219 103.798 62.5219 103.798C62.5219 103.798 45.961 124.61 45.0722 125.202C44.1835 125.794 43.1737 125.924 43.7526 127.413C44.3316 128.901 43.2942 131.754 43.2942 131.754C43.2942 131.754 36.7677 130.765 34.1014 124.253C34.1014 124.253 44.883 104.629 45.8617 104.303C46.8403 103.978 47.2847 105.606 46.8403 103.978C46.3959 102.35 45.5072 102.942 46.3959 102.35C46.9946 101.968 47.6424 101.669 48.3216 101.462L51.7702 92.3527C49.1116 86.2601 49.2817 80.3632 52.5351 74.6796Z" fill="#232323"/>
<path d="M52.4078 64.2517L52.8948 68.7639L52.6082 74.681L65.7259 73.1239L66.9586 64.2517L65.3881 64.267L52.4078 64.2517Z" fill="#D9D9D9"/>
<path d="M63.5658 49.6769L58.6289 45.7828L56.0374 45.6323L52.1921 48.0935L51.2505 52.8929L49.0236 58.2974L52.2898 72.8824C52.2898 72.8824 52.5962 73.929 51.7934 74.0547C50.9906 74.1805 51.0869 75.7232 51.0869 75.7232C51.0869 75.7232 51.2504 77.0602 50.4709 77.178C49.6914 77.2957 47.6128 77.2957 49.4316 79.6321C51.2505 81.9686 65.9816 73.1134 65.9816 73.1134L67.7258 62.178C67.7258 62.178 71.778 56.7403 67.4141 53.626L63.5658 49.6769Z" fill="#FEBD59"/>
<path d="M42.0141 82.7916C41.7966 82.5204 41.6412 82.2048 41.5589 81.8671C41.4767 81.5295 41.4695 81.1779 41.538 80.8371C41.6064 80.4964 41.7488 80.1747 41.9552 79.8949C42.1615 79.6151 42.4267 79.3839 42.7321 79.2176L48.9419 58.3961L52.8249 60.3493L46.0623 80.3064C46.3079 80.8376 46.35 81.4404 46.1806 82.0005C46.0112 82.5606 45.642 83.0392 45.143 83.3455C44.644 83.6518 44.0499 83.7646 43.4732 83.6625C42.8965 83.5605 42.3774 83.2506 42.0141 82.7916H42.0141Z" fill="#C86D50"/>
<path d="M53.0839 47.9009C53.0839 47.9009 51.9739 47.3115 51.2146 49.862C50.6068 51.9038 45.6748 64.0657 45.6119 67.0225C45.206 67.1085 44.8403 67.3269 44.5723 67.6434C44.3043 67.9598 44.1494 68.3564 44.1318 68.7706L50.2298 69.587C51.2954 68.6891 51.575 67.4763 51.1627 67.1163L52.4867 63.5034L58.0104 52.0083L53.8938 48.3127L53.0839 47.9009Z" fill="#FEBD59"/>
<path d="M85.6674 75.9476C85.7462 75.6091 85.7497 75.2574 85.6777 74.9174C85.6057 74.5774 85.46 74.2573 85.2508 73.9796C85.0415 73.7019 84.7739 73.4735 84.4668 73.3103C84.1596 73.1472 83.8204 73.0533 83.473 73.0353L69.2279 56.7806L66.2061 60.3831L80.9417 75.4559C80.9501 76.0409 81.173 76.6026 81.5682 77.0344C81.9634 77.4663 82.5034 77.7383 83.0859 77.7989C83.6684 77.8595 84.253 77.7045 84.7287 77.3633C85.2045 77.0221 85.5385 76.5184 85.6674 75.9476Z" fill="#C86D50"/>
<path d="M60.5846 49.2708C60.5846 49.2708 61.3304 48.2598 63.1188 50.2313C64.5506 51.8097 74.2616 60.6447 75.5981 63.2837C76.0013 63.1858 76.4256 63.2247 76.8042 63.3943C77.1828 63.5639 77.4942 63.8545 77.6892 64.2203L72.5443 67.5912C71.1948 67.2419 70.4179 66.2692 70.6338 65.7665L67.8762 63.0809L57.9203 55.1028L60.0326 49.992L60.5846 49.2708Z" fill="#FEBD59"/>
<path d="M63.1119 45.9771C63.6836 45.1567 58.7441 43.2175 57.7879 43.5861C55.8262 44.3468 53.5084 45.9719 51.7052 46.2029C51.7397 45.488 51.6759 44.7718 51.5155 44.0742C51.3206 44.7829 51.1284 45.4942 50.9335 46.2055C49.2316 45.9641 46.3968 43.1137 47.0931 36.5379C47.3816 33.8302 49.3693 30.9512 55.8652 29.8842C61.8621 28.9029 63.325 33.35 63.8862 36.2549C65.1646 42.8515 64.5332 45.8758 63.1119 45.9771Z" fill="#232323"/>
<path d="M57.5293 43.5958C60.497 43.5958 62.9029 41.1921 62.9029 38.227C62.9029 35.2618 60.497 32.8581 57.5293 32.8581C54.5615 32.8581 52.1556 35.2618 52.1556 38.227C52.1556 41.1921 54.5615 43.5958 57.5293 43.5958Z" fill="#C86D50"/>
<path d="M64.7619 36.3112L62.1878 36.7042C61.0526 35.9938 60.6203 34.9398 60.5663 33.7007L60.8252 36.9123L59.5949 37.1001C58.7919 36.5649 58.4331 35.9852 58.649 35.3481L58.8 37.2215C55.5207 38.402 52.342 39.2726 49.6584 38.6173C49.5201 37.7134 49.5614 36.7911 49.7799 35.9031C49.9984 35.0152 50.3898 34.1789 50.9317 33.442C51.4737 32.7052 52.1556 32.0822 52.9386 31.6087C53.7215 31.1351 54.5901 30.8203 55.4948 30.6822L56.8197 30.4799C57.7244 30.3418 58.6475 30.383 59.5363 30.6013C60.4251 30.8196 61.2621 31.2106 61.9996 31.7521C62.7371 32.2936 63.3606 32.9749 63.8346 33.7572C64.3085 34.5394 64.6236 35.4073 64.7619 36.3112Z" fill="#232323"/>
<path d="M17.5308 143.262C17.3813 143.269 17.2334 143.23 17.1071 143.15C16.9807 143.07 16.882 142.953 16.8243 142.815C16.7666 142.677 16.7527 142.525 16.7845 142.379C16.8163 142.233 16.8923 142.1 17.0021 141.999L17.0521 141.8C17.0455 141.784 17.0389 141.768 17.0322 141.753C16.8817 141.397 16.6295 141.095 16.3072 140.882C15.985 140.67 15.6071 140.557 15.221 140.558C14.8349 140.56 14.4579 140.675 14.1372 140.89C13.8166 141.105 13.5666 141.41 13.4188 141.766C12.8278 143.188 12.0753 144.613 11.8901 146.116C11.8085 146.781 11.8429 147.455 11.9918 148.108C10.6037 145.082 9.88289 141.794 9.87825 138.466C9.87796 137.631 9.9244 136.797 10.0174 135.967C10.0942 135.286 10.2008 134.611 10.3371 133.94C11.0811 130.301 12.6785 126.89 14.9981 123.988C16.1207 123.376 17.0286 122.435 17.5995 121.291C17.8063 120.88 17.9524 120.441 18.0334 119.988C17.9067 120.005 17.5559 118.078 17.6514 117.96C17.4749 117.692 17.159 117.559 16.9662 117.298C16.0076 115.999 14.6868 116.226 13.9973 117.991C12.5244 118.734 12.5102 119.965 13.4139 121.15C13.9889 121.904 14.068 122.924 14.5725 123.73C14.5205 123.797 14.4666 123.861 14.4147 123.928C13.4658 125.146 12.6389 126.455 11.9456 127.836C12.1142 126.289 11.913 124.725 11.3585 123.272C10.7966 121.918 9.74334 120.777 8.81581 119.606C7.70169 118.2 5.41709 118.813 5.2208 120.596C5.21891 120.614 5.21705 120.631 5.21524 120.648C5.35301 120.726 5.48787 120.808 5.61982 120.895C5.78559 121.006 5.91403 121.164 5.98833 121.349C6.06262 121.534 6.0793 121.737 6.03618 121.931C5.99306 122.126 5.89215 122.303 5.74667 122.439C5.60118 122.575 5.41792 122.664 5.22088 122.694L5.20071 122.697C5.24979 123.194 5.33654 123.685 5.46022 124.168C4.27031 128.766 6.83924 130.44 10.5073 130.516C10.5883 130.557 10.6672 130.598 10.7482 130.638C10.0517 132.61 9.61479 134.664 9.44851 136.749C9.35437 137.979 9.35992 139.214 9.46512 140.443L9.45889 140.4C9.19312 139.033 8.46345 137.8 7.3931 136.909C5.80338 135.604 3.5574 135.123 1.84237 134.075C1.6601 133.958 1.44817 133.895 1.23157 133.895C1.01497 133.894 0.80274 133.956 0.619905 134.072C0.43707 134.188 0.291255 134.353 0.199664 134.55C0.108074 134.746 0.0745304 134.964 0.10298 135.178C0.105278 135.194 0.107611 135.209 0.109989 135.224C0.365651 135.328 0.614581 135.448 0.855325 135.583C0.993094 135.661 1.12795 135.743 1.2599 135.83C1.42567 135.941 1.5541 136.099 1.6284 136.284C1.70269 136.469 1.71937 136.672 1.67625 136.866C1.63313 137.061 1.53222 137.238 1.38674 137.374C1.24126 137.51 1.058 137.599 0.86097 137.629L0.840774 137.632C0.826247 137.635 0.813783 137.637 0.799271 137.639C1.2361 138.681 1.84921 139.64 2.61174 140.474C3.35576 144.488 6.55135 144.869 9.96961 143.7H9.97169C10.3467 145.328 10.8902 146.913 11.5932 148.429H17.3856C17.4064 148.365 17.4251 148.299 17.4438 148.234C16.9076 148.268 16.3693 148.236 15.841 148.139C16.2707 147.612 16.7005 147.081 17.1303 146.554C17.1398 146.544 17.1489 146.534 17.1573 146.523C17.3753 146.253 17.5953 145.986 17.8133 145.716L17.8134 145.716C17.825 144.889 17.7301 144.064 17.531 143.262L17.5308 143.262Z" fill="#F2F2F2"/>
<path d="M0.309398 148.92L150.169 149C150.251 149 150.33 148.967 150.388 148.909C150.446 148.851 150.478 148.773 150.478 148.691C150.478 148.609 150.446 148.53 150.388 148.472C150.33 148.414 150.251 148.382 150.169 148.382L0.309398 148.302C0.2275 148.302 0.149036 148.335 0.091209 148.393C0.0333823 148.451 0.000915527 148.529 0.000915527 148.611C0.000915527 148.693 0.0333823 148.771 0.091209 148.829C0.149036 148.887 0.2275 148.92 0.309398 148.92Z" fill="#D9D9D9"/>
<path d="M134.343 76.9712H85.7708C84.8333 76.9701 83.9345 76.5976 83.2716 75.9352C82.6087 75.2729 82.2358 74.3749 82.2347 73.4383V28.3391C82.2358 27.4025 82.6087 26.5045 83.2716 25.8421C83.9345 25.1798 84.8333 24.8073 85.7708 24.8062H134.343C135.281 24.8073 136.179 25.1798 136.842 25.8421C137.505 26.5045 137.878 27.4025 137.879 28.3391V73.4382C137.878 74.3749 137.505 75.2729 136.842 75.9352C136.179 76.5976 135.281 76.9701 134.343 76.9712Z" fill="#D9D9D9"/>
<path d="M124.12 74.5882H88.1566C87.2191 74.5871 86.3203 74.2145 85.6574 73.5522C84.9945 72.8899 84.6216 71.9919 84.6205 71.0552V30.724C84.6216 29.7874 84.9945 28.8894 85.6574 28.2271C86.3203 27.5647 87.2191 27.1922 88.1566 27.1911H131.958C132.896 27.1922 133.794 27.5647 134.457 28.2271C135.12 28.8894 135.493 29.7874 135.494 30.724V63.2243C135.491 66.2371 134.291 69.1256 132.159 71.256C130.027 73.3864 127.136 74.5848 124.12 74.5882Z" fill="white"/>
<path d="M105.007 40.6481C105.007 41.6752 104.703 42.6794 104.132 43.5336C103.561 44.3877 102.749 45.0536 101.799 45.4469C100.85 45.8402 99.8046 45.9433 98.7963 45.7432C97.7879 45.5431 96.8616 45.0487 96.1345 44.3225C95.4073 43.5964 94.912 42.6712 94.7112 41.6638C94.5104 40.6564 94.6131 39.6122 95.0063 38.6631C95.3994 37.7141 96.0655 36.9028 96.9201 36.3319C97.7748 35.7611 98.7797 35.4562 99.8078 35.456C100.491 35.4551 101.167 35.5887 101.798 35.8493C102.429 36.1099 103.002 36.4922 103.485 36.9745C103.968 37.4568 104.351 38.0295 104.612 38.6599C104.874 39.2902 105.008 39.9658 105.007 40.6481Z" fill="#FEBD59"/>
<path d="M108.577 50.0169H95.9474C95.2199 50.0169 94.6302 50.6062 94.6302 51.333V51.962C94.6302 52.6889 95.2199 53.2781 95.9474 53.2781H108.577C109.305 53.2781 109.894 52.6889 109.894 51.962V51.333C109.894 50.6062 109.305 50.0169 108.577 50.0169Z" fill="#3F4D90"/>
<path d="M124.124 56.5392H95.9904C95.2629 56.5392 94.6732 57.1285 94.6732 57.8553V58.4843C94.6732 59.2111 95.2629 59.8004 95.9904 59.8004H124.124C124.852 59.8004 125.441 59.2111 125.441 58.4843V57.8553C125.441 57.1285 124.852 56.5392 124.124 56.5392Z" fill="#3F4D90"/>
<path d="M124.124 63.0615H95.9904C95.2629 63.0615 94.6732 63.6507 94.6732 64.3776V65.0066C94.6732 65.7334 95.2629 66.3226 95.9904 66.3226H124.124C124.852 66.3226 125.441 65.7334 125.441 65.0066V64.3776C125.441 63.6507 124.852 63.0615 124.124 63.0615Z" fill="#3F4D90"/>
<path d="M99.9237 41.4007C100.928 41.4007 101.743 40.5871 101.743 39.5835C101.743 38.5798 100.928 37.7662 99.9237 37.7662C98.9192 37.7662 98.1049 38.5798 98.1049 39.5835C98.1049 40.5871 98.9192 41.4007 99.9237 41.4007Z" fill="white"/>
<path d="M101.873 42.0499H97.976C97.7349 42.0502 97.5037 42.146 97.3332 42.3163C97.1627 42.4867 97.0668 42.7176 97.0666 42.9585C97.1221 43.7367 97.2437 44.5088 97.4303 45.2664C98.212 45.6688 99.0831 45.8664 99.962 45.8405C100.841 45.8146 101.699 45.5661 102.456 45.1184C102.622 44.4084 102.732 43.6861 102.783 42.9585C102.783 42.7176 102.687 42.4867 102.516 42.3163C102.346 42.146 102.115 42.0502 101.873 42.0499Z" fill="white"/>
<path d="M129.634 35.968C128.955 35.968 128.291 35.7668 127.726 35.3897C127.161 35.0127 126.721 34.4768 126.461 33.8497C126.201 33.2227 126.133 32.5328 126.266 31.8671C126.398 31.2015 126.725 30.5901 127.206 30.1102C127.686 29.6303 128.298 29.3035 128.964 29.1711C129.63 29.0386 130.321 29.1066 130.949 29.3663C131.576 29.6261 132.113 30.0659 132.49 30.6302C132.867 31.1945 133.069 31.8579 133.069 32.5366C133.069 33.4467 132.707 34.3195 132.063 34.963C131.419 35.6065 130.545 35.968 129.634 35.968Z" fill="#D9D9D9"/>
<path d="M130.832 33.2547L130.113 32.5366L130.832 31.8185C130.896 31.7551 130.931 31.669 130.931 31.5792C130.931 31.4894 130.896 31.4033 130.832 31.3398C130.769 31.2764 130.682 31.2407 130.593 31.2407C130.503 31.2407 130.416 31.2764 130.353 31.3398L129.634 32.0579L128.916 31.3398C128.852 31.2764 128.766 31.2407 128.676 31.2407C128.586 31.2407 128.5 31.2764 128.436 31.3398C128.373 31.4033 128.337 31.4894 128.337 31.5792C128.337 31.669 128.373 31.7551 128.436 31.8185L129.155 32.5366L128.436 33.2547C128.373 33.3181 128.337 33.4042 128.337 33.494C128.337 33.5838 128.373 33.6699 128.436 33.7334C128.5 33.7968 128.586 33.8325 128.676 33.8325C128.766 33.8325 128.852 33.7968 128.916 33.7334L129.634 33.0153L130.353 33.7333C130.384 33.7648 130.422 33.7897 130.463 33.8067C130.504 33.8237 130.548 33.8325 130.592 33.8325C130.637 33.8325 130.681 33.8237 130.722 33.8067C130.763 33.7897 130.801 33.7648 130.832 33.7333C130.864 33.7019 130.888 33.6646 130.906 33.6235C130.923 33.5825 130.931 33.5384 130.931 33.494C130.931 33.4495 130.923 33.4055 130.906 33.3645C130.888 33.3234 130.864 33.2861 130.832 33.2546V33.2547Z" fill="white"/>
</g>
<defs>
<clipPath id="clip0_843_748">
<rect width="151" height="149" fill="white"/>
</clipPath>
</defs>
</svg>
