<svg width="454" height="282" viewBox="0 0 454 282" fill="none" xmlns="http://www.w3.org/2000/svg">
<g clip-path="url(#clip0_841_189)">
<path d="M355.06 18.9869H98.9397C98.6796 18.9814 98.4321 18.8742 98.2501 18.6882C98.0681 18.5023 97.9662 18.2524 97.9662 17.9922C97.9662 17.732 98.0681 17.4822 98.2501 17.2962C98.4321 17.1103 98.6796 17.0031 98.9397 16.9975H355.06C355.32 17.0031 355.568 17.1103 355.75 17.2962C355.932 17.4822 356.034 17.732 356.034 17.9922C356.034 18.2524 355.932 18.5023 355.75 18.6882C355.568 18.8742 355.32 18.9814 355.06 18.9869Z" fill="white"/>
<path d="M115.962 11.9187C119.181 11.9187 121.79 9.25064 121.79 5.95937C121.79 2.6681 119.181 0 115.962 0C112.743 0 110.134 2.6681 110.134 5.95937C110.134 9.25064 112.743 11.9187 115.962 11.9187Z" fill="#DDF00F"/>
<path d="M136.095 11.9187C139.313 11.9187 141.923 9.25064 141.923 5.95937C141.923 2.6681 139.313 0 136.095 0C132.876 0 130.267 2.6681 130.267 5.95937C130.267 9.25064 132.876 11.9187 136.095 11.9187Z" fill="#DDF00F"/>
<path d="M156.227 11.9187C159.446 11.9187 162.055 9.25064 162.055 5.95937C162.055 2.6681 159.446 0 156.227 0C153.009 0 150.4 2.6681 150.4 5.95937C150.4 9.25064 153.009 11.9187 156.227 11.9187Z" fill="#DDF00F"/>
<path d="M342.939 1.47708H328.637C328.354 1.48273 328.084 1.59932 327.886 1.80184C327.687 2.00436 327.576 2.27664 327.576 2.56023C327.576 2.84382 327.687 3.11611 327.886 3.31862C328.084 3.52114 328.354 3.63773 328.637 3.64338H342.939C343.222 3.63773 343.492 3.52114 343.691 3.31862C343.889 3.11611 344 2.84382 344 2.56023C344 2.27664 343.889 2.00436 343.691 1.80184C343.492 1.59932 343.222 1.48273 342.939 1.47708Z" fill="#DDF00F"/>
<path d="M342.939 5.54291H328.637C328.354 5.54855 328.084 5.66515 327.886 5.86767C327.687 6.07018 327.576 6.34247 327.576 6.62606C327.576 6.90965 327.687 7.18193 327.886 7.38445C328.084 7.58696 328.354 7.70357 328.637 7.70922H342.939C343.222 7.70357 343.492 7.58696 343.691 7.38445C343.889 7.18193 344 6.90965 344 6.62606C344 6.34247 343.889 6.07018 343.691 5.86767C343.492 5.66515 343.222 5.54855 342.939 5.54291Z" fill="#DDF00F"/>
<path d="M342.939 9.60339H328.637C328.354 9.60904 328.084 9.72564 327.886 9.92815C327.687 10.1307 327.576 10.403 327.576 10.6866C327.576 10.9701 327.687 11.2424 327.886 11.4449C328.084 11.6475 328.354 11.7641 328.637 11.7697H342.939C343.222 11.7641 343.492 11.6475 343.691 11.4449C343.889 11.2424 344 10.9701 344 10.6866C344 10.403 343.889 10.1307 343.691 9.92815C343.492 9.72564 343.222 9.60904 342.939 9.60339Z" fill="#DDF00F"/>
<path d="M313.784 33.0455H294.835C293.412 33.0455 292.258 34.1996 292.258 35.6232V35.6232C292.258 37.0468 293.412 38.2009 294.835 38.2009H313.784C315.207 38.2009 316.361 37.0468 316.361 35.6232C316.361 34.1996 315.207 33.0455 313.784 33.0455Z" fill="#D9D9D9"/>
<path d="M326.025 43.3564H282.594C281.171 43.3564 280.017 44.5105 280.017 45.9341V45.9341C280.017 47.3578 281.171 48.5118 282.594 48.5118H326.025C327.448 48.5118 328.602 47.3578 328.602 45.9341C328.602 44.5105 327.448 43.3564 326.025 43.3564Z" fill="#E6E6E6"/>
<path d="M326.025 53.6673H282.594C281.171 53.6673 280.017 54.8214 280.017 56.245V56.245C280.017 57.6687 281.171 58.8228 282.594 58.8228H326.025C327.448 58.8228 328.602 57.6687 328.602 56.245C328.602 54.8214 327.448 53.6673 326.025 53.6673Z" fill="#E6E6E6"/>
<path d="M106.728 172.933H94.7655C94.444 172.933 92.6732 171.996 92.6732 170.84V164.193C92.616 159.166 109.07 158.837 109.133 164.193V170.84C109.133 171.996 107.883 172.933 106.728 172.933Z" fill="#E6E6E6"/>
<path d="M107.347 159.688C106.766 159.48 106.15 159.392 105.535 159.428C105.699 159.374 105.851 159.285 105.978 159.168C105.866 159.164 105.754 159.148 105.645 159.123C105.524 159.1 105.41 159.049 105.313 158.974C105.264 158.936 105.226 158.887 105.202 158.831C105.178 158.774 105.168 158.713 105.173 158.652C105.196 158.5 105.338 158.374 105.323 158.221C105.306 158.046 105.104 157.961 104.996 157.822C104.93 157.717 104.9 157.594 104.91 157.471C104.92 157.347 104.971 157.231 105.053 157.139C105.156 157.019 105.282 156.921 105.423 156.851C105.184 156.789 104.934 156.793 104.697 156.861C104.821 156.765 104.914 156.635 104.965 156.486C105.016 156.337 105.023 156.177 104.984 156.025C104.918 155.834 104.806 155.663 104.658 155.525C104.51 155.388 104.33 155.29 104.135 155.238C103.744 155.14 103.339 155.107 102.938 155.141C103.279 155.037 103.228 154.501 102.967 154.258C102.706 154.014 102.332 153.912 102.086 153.653C101.84 153.394 101.86 152.841 102.215 152.798L102.171 152.672C101.988 152.604 101.792 152.575 101.597 152.589C101.402 152.603 101.212 152.659 101.041 152.752C100.869 152.846 100.719 152.975 100.602 153.132C100.485 153.288 100.402 153.468 100.36 153.659C100.295 154.064 100.416 154.512 100.213 154.868C99.9544 155.322 99.3259 155.373 98.8057 155.323C98.2949 155.192 97.7532 155.266 97.2962 155.529C97.154 155.647 97.0522 155.807 97.0051 155.986C96.9579 156.165 96.9677 156.355 97.0331 156.528C97.0985 156.701 97.2162 156.85 97.3699 156.953C97.5236 157.056 97.7056 157.109 97.8906 157.104C97.5483 157.106 97.2076 157.151 96.8765 157.237L97.1954 157.361C97.2664 157.383 97.3319 157.42 97.3875 157.469C97.4149 157.494 97.4337 157.527 97.4413 157.564C97.449 157.6 97.4452 157.638 97.4304 157.672C97.3794 157.764 97.2476 157.761 97.1432 157.745L96.4497 157.641C96.487 157.653 96.521 157.674 96.5492 157.701C96.5775 157.729 96.5993 157.762 96.613 157.799C96.6268 157.836 96.6321 157.875 96.6286 157.914C96.6252 157.953 96.613 157.991 96.593 158.025C96.5731 158.059 96.5458 158.088 96.5132 158.109C96.4806 158.131 96.4435 158.146 96.4046 158.151C96.3658 158.157 96.3261 158.154 96.2886 158.142C96.2511 158.131 96.2167 158.111 96.1878 158.084C96.259 158.168 96.3163 158.262 96.3574 158.363C96.3775 158.414 96.385 158.469 96.3794 158.524C96.3738 158.578 96.3552 158.631 96.3252 158.677C96.2564 158.74 96.1697 158.78 96.0771 158.791C95.9845 158.802 95.8906 158.784 95.8088 158.74C95.7523 158.718 95.6955 158.693 95.6383 158.669C95.6394 158.69 95.6409 158.71 95.6433 158.73C95.6623 158.862 95.7084 158.988 95.7789 159.101C95.8493 159.214 95.9425 159.311 96.0524 159.386C95.738 159.423 95.4486 159.575 95.2405 159.814C95.0648 160.032 94.9646 160.302 94.955 160.582C94.9453 160.862 95.0268 161.138 95.1871 161.367C94.8372 161.213 94.4538 161.149 94.0728 161.183C93.8835 161.206 93.7095 161.298 93.5836 161.441C93.4577 161.585 93.3888 161.769 93.3899 161.96C93.4531 162.443 94.0517 162.62 94.5355 162.68C98.34 163.148 102.188 163.148 105.992 162.679C106.509 162.644 107.015 162.515 107.486 162.299C107.72 162.188 107.922 162.019 108.074 161.809C108.226 161.599 108.322 161.354 108.354 161.097C108.344 160.789 108.243 160.49 108.064 160.24C107.884 159.989 107.635 159.797 107.347 159.688Z" fill="#D9D9D9"/>
<path d="M110.17 165.289C110.128 165.107 110.025 164.944 109.878 164.827C109.731 164.711 109.549 164.648 109.362 164.649C108.994 164.659 108.666 164.921 108.304 164.864C108.005 164.816 107.769 164.554 107.468 164.594C107.191 164.631 107.043 164.901 106.837 165.046H106.308C106.102 164.884 106.001 164.555 105.715 164.463C105.285 164.325 104.94 164.81 104.489 164.896C104.228 164.925 103.965 164.875 103.733 164.752C103.506 164.628 103.26 164.545 103.005 164.505C102.892 164.488 102.778 164.503 102.674 164.549C102.57 164.595 102.481 164.669 102.417 164.763C102.431 164.625 102.253 164.491 102.072 164.482C101.869 164.489 101.672 164.55 101.501 164.658C101.328 164.766 101.129 164.823 100.926 164.822C100.476 164.783 100.255 164.257 99.8026 164.251C99.2329 164.244 99.005 165.056 98.4416 164.987C98.1486 164.951 97.9905 164.685 97.7293 164.571C97.4521 164.486 97.1561 164.483 96.8773 164.563L95.5448 164.812C95.1542 164.92 94.7423 164.924 94.3497 164.824C94.0639 164.72 93.7863 164.496 93.4916 164.582C93.2349 164.656 93.1095 164.943 92.8377 164.958C92.6641 164.936 92.4968 164.879 92.3461 164.79C92.2052 164.74 92.0527 164.733 91.9077 164.77C91.7628 164.806 91.6319 164.885 91.5315 164.996C91.3823 165.604 91.3582 166.235 91.4605 166.853C91.4564 166.985 91.4669 167.116 91.4916 167.246L92.8318 172.61C92.9893 173.433 93.396 174.028 94.2335 174.028H107.259C107.665 174.028 108.059 173.886 108.372 173.628C108.685 173.369 108.898 173.009 108.974 172.61L110.314 167.246C110.317 167.232 110.319 167.218 110.321 167.204C110.353 166.562 110.302 165.919 110.17 165.289Z" fill="#CCCCCC"/>
<path opacity="0.2" d="M94.2443 164.886L94.5047 168.272C94.5915 169.401 94.463 170.514 94.5498 171.642C94.5987 172.278 94.8629 172.929 94.9118 173.565C94.9176 173.64 95.0349 173.641 95.0291 173.565L94.7687 170.179L94.5082 166.793L94.3616 164.886C94.3558 164.811 94.2385 164.81 94.2443 164.886Z" fill="#232323"/>
<path opacity="0.2" d="M96.5064 165.02L96.6077 168.357L96.7089 171.693L96.7658 173.567C96.7681 173.642 96.8851 173.642 96.8828 173.567L96.7816 170.23L96.6803 166.893L96.6234 165.02C96.6211 164.944 96.5041 164.944 96.5064 165.02Z" fill="#232323"/>
<path opacity="0.2" d="M98.6978 165.22L98.667 168.445L98.6364 171.65L98.619 173.468C98.6195 173.483 98.6259 173.497 98.6368 173.508C98.6478 173.518 98.6624 173.524 98.6775 173.524C98.6927 173.524 98.7073 173.518 98.7182 173.508C98.7291 173.497 98.7355 173.483 98.736 173.468L98.7668 170.243L98.7974 167.038L98.8148 165.22C98.8143 165.205 98.8079 165.19 98.797 165.18C98.786 165.169 98.7715 165.163 98.7563 165.163C98.7411 165.163 98.7265 165.169 98.7156 165.18C98.7047 165.19 98.6983 165.205 98.6978 165.22V165.22Z" fill="#232323"/>
<path opacity="0.2" d="M100.354 165.121L100.418 168.386L100.481 171.631L100.517 173.468C100.518 173.484 100.524 173.498 100.535 173.509C100.546 173.519 100.561 173.525 100.576 173.525C100.591 173.525 100.606 173.519 100.617 173.509C100.627 173.498 100.634 173.484 100.634 173.468L100.57 170.204L100.507 166.959L100.471 165.121C100.47 165.106 100.464 165.092 100.453 165.081C100.442 165.071 100.427 165.065 100.412 165.065C100.397 165.065 100.382 165.071 100.371 165.081C100.36 165.092 100.354 165.106 100.354 165.121V165.121Z" fill="#232323"/>
<path opacity="0.2" d="M102.766 164.987L102.84 168.339L102.913 171.691L102.954 173.567C102.954 173.582 102.961 173.596 102.972 173.607C102.983 173.617 102.997 173.623 103.012 173.623C103.028 173.623 103.042 173.617 103.053 173.607C103.064 173.596 103.07 173.582 103.071 173.567L102.998 170.215L102.924 166.863L102.883 164.987C102.883 164.972 102.876 164.958 102.865 164.947C102.855 164.937 102.84 164.931 102.825 164.931C102.81 164.931 102.795 164.937 102.784 164.947C102.774 164.958 102.767 164.972 102.766 164.987Z" fill="#232323"/>
<path opacity="0.2" d="M104.769 165.089L105.025 168.466L105.28 171.833L105.424 173.731C105.43 173.806 105.547 173.806 105.541 173.731L105.285 170.354L105.03 166.987L104.887 165.089C104.881 165.014 104.764 165.013 104.769 165.089Z" fill="#232323"/>
<path opacity="0.2" d="M106.995 165.482L107.149 168.572C107.2 169.602 106.939 170.632 106.991 171.662L107.077 173.397C107.081 173.473 107.198 173.473 107.194 173.397C107.143 172.367 107.404 171.337 107.352 170.307L107.198 167.217L107.112 165.482C107.108 165.407 106.991 165.407 106.995 165.482Z" fill="#232323"/>
<path d="M100.199 157.017C100.447 157.017 100.649 156.877 100.649 156.704C100.649 156.531 100.447 156.391 100.199 156.391C99.9508 156.391 99.7496 156.531 99.7496 156.704C99.7496 156.877 99.9508 157.017 100.199 157.017Z" fill="#E6E6E6"/>
<path d="M103.053 157.721C103.301 157.721 103.503 157.581 103.503 157.408C103.503 157.235 103.301 157.095 103.053 157.095C102.805 157.095 102.604 157.235 102.604 157.408C102.604 157.581 102.805 157.721 103.053 157.721Z" fill="#FEBD59"/>
<path d="M99.0654 159.246C99.3137 159.246 99.515 159.106 99.515 158.933C99.515 158.76 99.3137 158.62 99.0654 158.62C98.8171 158.62 98.6158 158.76 98.6158 158.933C98.6158 159.106 98.8171 159.246 99.0654 159.246Z" fill="#FF6584"/>
<path d="M102.783 159.658C102.94 159.658 103.067 159.57 103.067 159.46C103.067 159.351 102.94 159.263 102.783 159.263C102.626 159.263 102.499 159.351 102.499 159.46C102.499 159.57 102.626 159.658 102.783 159.658Z" fill="#E6E6E6"/>
<path d="M104.587 160.103C104.744 160.103 104.871 160.014 104.871 159.905C104.871 159.796 104.744 159.707 104.587 159.707C104.43 159.707 104.303 159.796 104.303 159.905C104.303 160.014 104.43 160.103 104.587 160.103Z" fill="#FEBD59"/>
<path d="M102.067 161.067C102.224 161.067 102.351 160.978 102.351 160.869C102.351 160.76 102.224 160.671 102.067 160.671C101.91 160.671 101.783 160.76 101.783 160.869C101.783 160.978 101.91 161.067 102.067 161.067Z" fill="#FF6584"/>
<path d="M105.442 160.753C105.599 160.753 105.726 160.664 105.726 160.555C105.726 160.446 105.599 160.358 105.442 160.358C105.285 160.358 105.158 160.446 105.158 160.555C105.158 160.664 105.285 160.753 105.442 160.753Z" fill="#E6E6E6"/>
<path d="M107.245 161.198C107.402 161.198 107.53 161.109 107.53 161C107.53 160.891 107.402 160.802 107.245 160.802C107.089 160.802 106.961 160.891 106.961 161C106.961 161.109 107.089 161.198 107.245 161.198Z" fill="#FEBD59"/>
<path d="M104.725 162.162C104.882 162.162 105.009 162.073 105.009 161.964C105.009 161.855 104.882 161.766 104.725 161.766C104.568 161.766 104.441 161.855 104.441 161.964C104.441 162.073 104.568 162.162 104.725 162.162Z" fill="#FF6584"/>
<path d="M98.1165 159.71C98.1379 159.554 98.0678 159.416 97.9599 159.401C97.8519 159.387 97.7471 159.501 97.7257 159.656C97.7043 159.812 97.7744 159.95 97.8823 159.965C97.9902 159.979 98.0951 159.865 98.1165 159.71Z" fill="#E6E6E6"/>
<path d="M97.4297 161.437C97.4511 161.281 97.381 161.143 97.2731 161.128C97.1652 161.113 97.0603 161.227 97.0389 161.383C97.0175 161.538 97.0876 161.676 97.1955 161.691C97.3034 161.706 97.4083 161.592 97.4297 161.437Z" fill="#FEBD59"/>
<path d="M96.8191 158.808C96.8405 158.652 96.7704 158.514 96.6625 158.499C96.5545 158.484 96.4497 158.598 96.4283 158.754C96.4069 158.909 96.477 159.047 96.5849 159.062C96.6928 159.077 96.7977 158.963 96.8191 158.808Z" fill="#FF6584"/>
<path d="M101.205 158.771C101.226 158.616 101.156 158.478 101.048 158.463C100.94 158.448 100.836 158.562 100.814 158.718C100.793 158.873 100.863 159.011 100.971 159.026C101.079 159.041 101.184 158.927 101.205 158.771Z" fill="#E6E6E6"/>
<path d="M100.518 160.498C100.54 160.343 100.47 160.204 100.362 160.19C100.254 160.175 100.149 160.289 100.127 160.444C100.106 160.6 100.176 160.738 100.284 160.753C100.392 160.768 100.497 160.654 100.518 160.498Z" fill="#FEBD59"/>
<path d="M99.9076 157.869C99.9291 157.714 99.8589 157.576 99.751 157.561C99.6431 157.546 99.5382 157.66 99.5168 157.815C99.4954 157.971 99.5655 158.109 99.6734 158.124C99.7814 158.139 99.8862 158.025 99.9076 157.869Z" fill="#FF6584"/>
<path d="M102.042 156.86C102.063 156.705 101.993 156.567 101.885 156.552C101.777 156.537 101.673 156.651 101.651 156.806C101.63 156.962 101.7 157.1 101.808 157.115C101.916 157.13 102.021 157.016 102.042 156.86Z" fill="#FEBD59"/>
<path d="M101.432 154.232C101.454 154.077 101.384 153.939 101.276 153.924C101.168 153.909 101.063 154.023 101.042 154.178C101.02 154.334 101.09 154.472 101.198 154.487C101.306 154.502 101.411 154.388 101.432 154.232Z" fill="#FF6584"/>
<path d="M210.84 123.373C213.138 123.373 215 122.077 215 120.479C215 118.88 213.138 117.585 210.84 117.585C208.543 117.585 206.681 118.88 206.681 120.479C206.681 122.077 208.543 123.373 210.84 123.373Z" fill="#E6E6E6"/>
<path d="M237.244 129.886C239.542 129.886 241.404 128.59 241.404 126.991C241.404 125.393 239.542 124.097 237.244 124.097C234.947 124.097 233.085 125.393 233.085 126.991C233.085 128.59 234.947 129.886 237.244 129.886Z" fill="#FEBD59"/>
<path d="M200.351 143.996C202.648 143.996 204.51 142.7 204.51 141.101C204.51 139.503 202.648 138.207 200.351 138.207C198.054 138.207 196.191 139.503 196.191 141.101C196.191 142.7 198.054 143.996 200.351 143.996Z" fill="#FF6584"/>
<path d="M259.343 157.941C260.795 157.941 261.972 157.122 261.972 156.112C261.972 155.101 260.795 154.282 259.343 154.282C257.891 154.282 256.714 155.101 256.714 156.112C256.714 157.122 257.891 157.941 259.343 157.941Z" fill="#E6E6E6"/>
<path d="M276.03 162.057C277.482 162.057 278.659 161.238 278.659 160.227C278.659 159.217 277.482 158.398 276.03 158.398C274.579 158.398 273.402 159.217 273.402 160.227C273.402 161.238 274.579 162.057 276.03 162.057Z" fill="#FEBD59"/>
<path d="M191.578 148.291C191.776 146.853 191.126 145.575 190.125 145.437C189.125 145.299 188.153 146.353 187.955 147.792C187.757 149.231 188.407 150.509 189.408 150.647C190.408 150.785 191.38 149.73 191.578 148.291Z" fill="#E6E6E6"/>
<path d="M185.226 164.266C185.424 162.827 184.773 161.549 183.773 161.411C182.772 161.273 181.801 162.328 181.602 163.767C181.404 165.205 182.055 166.483 183.055 166.621C184.056 166.759 185.028 165.705 185.226 164.266Z" fill="#FEBD59"/>
<path d="M179.577 139.944C179.775 138.505 179.124 137.227 178.124 137.089C177.123 136.952 176.151 138.006 175.953 139.445C175.755 140.883 176.406 142.161 177.406 142.299C178.407 142.437 179.378 141.383 179.577 139.944Z" fill="#FF6584"/>
<path d="M220.154 139.609C220.352 138.17 219.702 136.892 218.701 136.754C217.701 136.616 216.729 137.671 216.531 139.11C216.333 140.548 216.983 141.826 217.984 141.964C218.984 142.102 219.956 141.048 220.154 139.609Z" fill="#E6E6E6"/>
<path d="M208.151 131.261C208.349 129.822 207.699 128.544 206.698 128.406C205.698 128.268 204.726 129.323 204.528 130.762C204.329 132.2 204.98 133.478 205.98 133.616C206.981 133.754 207.953 132.7 208.151 131.261Z" fill="#FF6584"/>
<path d="M319.247 271.487C319.515 271.5 319.78 271.429 320.006 271.286C320.233 271.142 320.41 270.933 320.513 270.686C320.616 270.438 320.641 270.165 320.584 269.903C320.527 269.641 320.391 269.403 320.194 269.221C320.161 269.09 320.138 268.996 320.105 268.865C320.361 268.214 320.806 267.655 321.382 267.258C321.958 266.862 322.64 266.646 323.339 266.64C324.038 266.633 324.724 266.836 325.307 267.221C325.891 267.607 326.346 268.158 326.614 268.804C328.163 272.43 330.168 276.185 329.171 280.179C335.756 266.219 333.517 248.854 323.785 236.915C322.412 236.186 321.215 235.166 320.276 233.927C319.337 232.689 318.679 231.26 318.347 229.742C319.678 230.193 321.338 229.11 320.337 227.707C319.903 227.171 319.465 226.639 319.031 226.103C324.088 220.715 330.114 229.182 324.547 236.454C326.368 238.737 327.946 241.205 329.254 243.817C328.952 241.044 329.312 238.238 330.305 235.631C331.312 233.202 333.199 231.156 334.861 229.056C335.306 228.486 335.911 228.062 336.598 227.839C337.286 227.616 338.025 227.605 338.719 227.806C339.413 228.007 340.031 228.412 340.493 228.968C340.956 229.524 341.241 230.205 341.312 230.925C339.447 231.538 339.205 234.232 341.338 234.601C341.013 237.62 339.932 240.508 338.195 242.997C336.457 245.487 334.12 247.498 331.399 248.843C333.406 254.476 334.19 260.472 333.698 266.431C334.657 259.466 342.131 257.776 347.355 255.008C347.688 254.795 348.075 254.683 348.47 254.686C348.865 254.689 349.25 254.807 349.579 255.026C349.908 255.245 350.167 255.554 350.323 255.917C350.479 256.28 350.526 256.681 350.458 257.07C349.737 257.363 349.047 257.727 348.398 258.157C348.094 258.362 347.861 258.655 347.73 258.998C347.599 259.34 347.578 259.715 347.668 260.07C347.758 260.425 347.956 260.744 348.235 260.982C348.513 261.22 348.859 261.366 349.224 261.401C346.59 267.92 339.782 272.297 332.79 272.272C332.118 275.193 331.145 278.036 329.885 280.756H319.507C319.47 280.64 319.437 280.521 319.403 280.406C320.364 280.466 321.328 280.409 322.275 280.235C319.733 277.225 317.768 275.689 319.247 271.487L319.247 271.487Z" fill="white"/>
<path d="M116.046 271.332C115.778 271.344 115.513 271.274 115.287 271.13C115.061 270.987 114.884 270.777 114.78 270.53C114.677 270.283 114.652 270.01 114.709 269.748C114.766 269.486 114.902 269.248 115.099 269.066L115.189 268.71C114.932 268.059 114.488 267.499 113.911 267.103C113.335 266.706 112.654 266.491 111.954 266.484C111.255 266.478 110.57 266.68 109.986 267.066C109.403 267.451 108.947 268.002 108.679 268.648C107.13 272.275 105.126 276.029 106.122 280.023C99.5373 266.063 101.777 248.698 111.509 236.76C112.881 236.03 114.078 235.011 115.017 233.772C115.956 232.533 116.615 231.105 116.947 229.586C115.615 230.037 113.955 228.954 114.956 227.552C115.39 227.015 115.828 226.484 116.262 225.947C111.205 220.56 105.179 229.027 110.746 236.298C108.925 238.582 107.348 241.05 106.04 243.662C106.342 240.888 105.981 238.083 104.988 235.476C103.981 233.047 102.094 231.001 100.432 228.9C99.9878 228.33 99.3826 227.907 98.6949 227.684C98.0073 227.461 97.2687 227.45 96.5744 227.651C95.8801 227.852 95.262 228.256 94.7999 228.812C94.3377 229.368 94.0527 230.05 93.9815 230.769C95.8462 231.382 96.0884 234.077 93.9555 234.445C94.2802 237.464 95.3613 240.352 97.0987 242.842C98.8361 245.331 101.173 247.342 103.894 248.688C101.887 254.321 101.104 260.316 101.596 266.276C100.636 259.311 93.1623 257.621 87.9383 254.853C87.6058 254.639 87.2185 254.528 86.8235 254.531C86.4285 254.534 86.043 254.652 85.714 254.871C85.3849 255.089 85.1266 255.399 84.9705 255.762C84.8144 256.125 84.7673 256.525 84.8349 256.914C85.5559 257.208 86.246 257.572 86.8951 258.002C87.1992 258.206 87.4326 258.5 87.5634 258.842C87.6941 259.185 87.7158 259.559 87.6254 259.914C87.5351 260.27 87.337 260.588 87.0585 260.826C86.78 261.065 86.4347 261.211 86.0698 261.245C88.703 267.764 95.511 272.142 102.503 272.117C103.175 275.038 104.149 277.881 105.408 280.6H115.786C115.823 280.485 115.857 280.366 115.89 280.25C114.93 280.311 113.965 280.253 113.019 280.079C115.56 277.069 117.526 275.534 116.046 271.332L116.046 271.332Z" fill="white"/>
<path d="M142.047 149.804L140.943 143.405L157.725 135.824L161.349 129.406C161.232 128.843 161.273 128.258 161.467 127.717C161.662 127.175 162.002 126.698 162.45 126.338C162.899 125.978 163.438 125.749 164.008 125.676C164.579 125.603 165.158 125.689 165.683 125.925C166.207 126.16 166.657 126.537 166.981 127.012C167.305 127.487 167.492 128.042 167.52 128.617C167.548 129.192 167.417 129.763 167.142 130.268C166.866 130.772 166.456 131.191 165.957 131.478L159.995 140.697L142.047 149.804Z" fill="#D9D9D9"/>
<path d="M136.946 144.572L144.503 140.711L146.504 148.225L141.254 152.118L136.946 144.572Z" fill="#FEBD59"/>
<path d="M119.987 272.291H124.556L126.73 254.661H119.987L119.987 272.291Z" fill="#D9D9D9"/>
<path d="M126.077 272.702V269.604L124.876 269.677L119.986 269.967L118.854 270.036L117.989 280.414L117.942 280.971H121.187L121.291 280.418L121.763 277.907L122.979 280.418L123.246 280.971H131.848C132.36 280.967 132.85 280.762 133.211 280.4C133.573 280.037 133.777 279.547 133.779 279.035C134.142 277.339 126.989 273.672 126.077 272.702Z" fill="#232323"/>
<path d="M65.8559 255.835L69.5918 258.467L81.5195 245.306L76.0056 241.421L65.8559 255.835Z" fill="#D9D9D9"/>
<path d="M70.7312 259.343L72.5153 256.81L71.4909 256.178L67.3264 253.598L66.3611 253.003L59.6787 260.988L59.3204 261.416L61.973 263.285L62.3763 262.894L64.2075 261.112L63.7563 263.866L63.656 264.471L70.6883 269.427C71.1087 269.719 71.6273 269.834 72.1316 269.746C72.6358 269.658 73.0851 269.374 73.3817 268.957C74.6551 267.779 70.918 260.661 70.7312 259.343Z" fill="#232323"/>
<path d="M127.053 158.19L121.171 155.44L109.442 169.638L102.297 171.446C101.785 171.184 101.21 171.07 100.637 171.115C100.063 171.16 99.5136 171.362 99.0481 171.7C98.5826 172.038 98.2196 172.498 97.999 173.029C97.7785 173.56 97.709 174.142 97.7983 174.711C97.8876 175.279 98.1322 175.811 98.5051 176.249C98.878 176.687 99.3647 177.014 99.9113 177.192C100.458 177.371 101.043 177.395 101.603 177.262C102.162 177.129 102.674 176.843 103.082 176.437L113.543 173.112L127.053 158.19Z" fill="#D9D9D9"/>
<path d="M121.123 181.061C121.123 181.061 111.472 187.346 114.024 191.523C114.112 191.667 93.4683 220.335 93.4683 220.335L70.3194 245.299L78.2768 252.535C78.2768 252.535 100.268 229.629 103.958 225.762C107.647 221.895 123.761 202.551 123.761 202.551L124.354 226.458L118.185 259.585L127.396 259.001L136.361 225.766L139.67 188.119L121.123 181.061Z" fill="#232323"/>
<path d="M127.997 143.336L123.939 146.413L119.313 156.287L123.761 162.33C123.761 162.33 127.502 168.816 121.514 175.097C115.525 181.378 110.926 188.086 115.72 187.847C120.513 187.607 139.927 197.484 140.054 189.392C140.182 181.301 140.441 175.097 140.441 175.097L145.53 162.184C145.53 162.184 148.563 154.481 146.434 152.175C144.305 149.869 141.454 146.922 141.454 146.922L136.27 141.737H131.589L127.997 143.336Z" fill="#FEBD59"/>
<path d="M135.572 124.363C144.677 129.545 137.202 143.218 127.929 138.349C118.825 133.167 126.299 119.495 135.572 124.363Z" fill="#D9D9D9"/>
<path d="M140.441 127.236C139.803 128.066 138.47 127.677 135.86 128.269C135.866 127.385 135.763 126.502 135.556 125.642C135.361 126.707 134.936 127.716 134.309 128.599C132.043 128.85 134.821 135.737 133.66 140.8C132.165 130.118 129.021 132.917 130.609 135.036C131.626 136.392 130.948 140.461 127.897 138.427C122.863 140.82 115.693 128.932 123.64 123.357C123.498 120.343 126.85 119.867 128.914 120.794C133.924 117.061 139.648 121.844 140.441 127.236Z" fill="#232323"/>
<path d="M117.081 119.442C115.054 131.907 104.19 117.149 99.0819 129.417C97.4758 133.859 100.231 137.037 101.975 140.725C102.372 143.755 98.431 145.293 98.0182 148.082C97.9033 154.478 108.218 154.086 111.102 150.051C114.065 145.828 110.527 140.161 112.307 135.627C114.811 129.333 124.99 129.286 125.877 121.963C124.159 119.517 119.541 116.715 117.081 119.442Z" fill="#232323"/>
<path d="M125.292 120.66C125.226 120.688 125.16 120.716 125.1 120.747H125.097C125.041 120.775 124.985 120.803 124.929 120.835C124.922 120.838 124.919 120.842 124.912 120.845C124.839 120.775 124.765 120.705 124.689 120.636C124.669 120.749 124.673 120.866 124.703 120.978L124.713 121.02C124.783 121.093 124.856 121.163 124.933 121.236C125.003 121.184 125.069 121.128 125.139 121.075C125.181 121.04 125.223 121.006 125.268 120.971C125.275 120.88 125.285 120.775 125.296 120.66L125.292 120.66ZM127.393 116.778C125.837 116.422 125.334 118.457 125.184 119.438C124.619 115.877 122.267 116.998 123.08 119.428C123.339 120.147 123.747 120.804 124.277 121.355C124.35 121.438 124.43 121.522 124.514 121.606C124.42 122.095 124.894 121.969 125.537 121.519C126.011 121.181 126.449 120.797 126.845 120.37C128.126 119.026 129.124 117.228 127.393 116.778ZM127.442 118.782C126.962 119.401 126.423 119.973 125.833 120.489C125.648 120.656 125.46 120.817 125.268 120.971C125.264 121.002 125.264 121.03 125.261 121.054C125.247 121.088 125.231 121.121 125.212 121.152C125.017 121.505 124.797 121.313 124.713 121.02C124.706 121.009 124.696 120.999 124.689 120.988C124.41 120.7 124.167 120.379 123.966 120.032C122.525 117.532 124.846 115.832 124.73 120.499C124.709 120.542 124.695 120.588 124.689 120.636C124.669 120.749 124.673 120.866 124.703 120.978L124.713 121.02C124.783 121.093 124.856 121.163 124.933 121.236C125.003 121.184 125.069 121.128 125.139 121.075C125.181 121.041 125.223 121.006 125.268 120.971C125.275 120.88 125.285 120.775 125.296 120.66V120.657C125.387 119.721 125.634 118.038 126.092 117.581C127.097 116.81 128.398 117.644 127.442 118.782H127.442ZM125.292 120.66C125.226 120.688 125.16 120.716 125.1 120.747H125.097C125.041 120.775 124.985 120.803 124.929 120.835C124.922 120.838 124.919 120.842 124.912 120.845C124.839 120.775 124.765 120.705 124.689 120.636C124.669 120.749 124.673 120.866 124.703 120.978L124.713 121.02C124.783 121.093 124.856 121.163 124.933 121.236C125.003 121.184 125.069 121.128 125.139 121.075C125.181 121.04 125.223 121.006 125.268 120.971C125.275 120.88 125.285 120.775 125.296 120.66L125.292 120.66Z" fill="#232323"/>
<path d="M317.012 273.023L312.543 274.04L306.493 257.281L313.09 255.78L317.012 273.023Z" fill="#D9D9D9"/>
<path d="M318.231 277.651L304.487 280.778L304.447 280.605C304.125 279.186 304.379 277.696 305.154 276.465C305.928 275.233 307.161 274.359 308.579 274.036L308.58 274.036L310.657 271.56L315.774 272.399L316.974 272.126L318.231 277.651Z" fill="#232323"/>
<path d="M375.292 264.213L371.432 266.685L360.063 252.968L365.76 249.319L375.292 264.213Z" fill="#D9D9D9"/>
<path d="M378.007 268.154L366.136 275.756L366.04 275.606C365.256 274.38 364.99 272.893 365.302 271.471C365.613 270.05 366.477 268.81 367.702 268.025L367.702 268.025L368.817 264.991L373.916 264.046L374.952 263.382L378.007 268.154Z" fill="#232323"/>
<path d="M314.037 189.537L310.675 198.308L294.901 229.43L308.761 265.634L315.914 263.746L310.019 229.43L326.933 208.873L336.754 229.995L364.967 261.109L371.477 256.767L350.499 224.567L336.529 183.732L314.037 189.537Z" fill="#232323"/>
<path d="M331.003 148.164L325.468 142.215L315.974 140.909L304.34 149.055L304.457 158.073L310.208 179.321C310.208 179.321 308.018 194.586 314.136 194.433C320.255 194.28 323.59 191.229 326.082 191.85C328.574 192.471 339.167 195.115 339.839 192.346C340.51 189.577 344.079 191.559 343.922 188.94C343.765 186.321 334.261 167.44 334.261 167.44L335.925 154.149C336.012 153.454 335.961 152.748 335.775 152.073C335.59 151.397 335.273 150.765 334.843 150.211C334.413 149.658 333.878 149.195 333.269 148.849C332.66 148.502 331.989 148.279 331.294 148.192C331.197 148.18 331.101 148.171 331.003 148.164L331.003 148.164Z" fill="#FEBD59"/>
<path d="M369.2 185.641C368.715 185.744 368.213 185.74 367.73 185.628C367.248 185.516 366.795 185.299 366.405 184.993C366.015 184.688 365.696 184.3 365.472 183.858C365.248 183.416 365.123 182.93 365.107 182.434L339.659 172.412L344.502 168.444L368.628 178.894C369.462 178.922 370.257 179.255 370.862 179.83C371.467 180.405 371.84 181.182 371.91 182.014C371.981 182.845 371.744 183.674 371.244 184.343C370.744 185.011 370.017 185.473 369.2 185.641Z" fill="#D9D9D9"/>
<path d="M333.154 149.267C333.154 149.267 328.819 149.233 328.287 154.169C327.755 159.105 336.844 171.624 338.249 173.686C338.689 174.331 340.579 175.066 342.968 175.77C344.04 176.086 345.213 176.396 346.401 176.69C347.088 176.86 347.395 177.999 348.075 178.155C348.752 178.311 349.802 177.483 350.438 177.622C353.46 178.278 355.848 178.715 355.848 178.715L361.498 174.864C358.648 170.654 353.196 168.932 347.018 167.903L333.154 149.267Z" fill="#FEBD59"/>
<path d="M269.365 126.343C269.44 126.833 269.622 127.301 269.898 127.713C270.174 128.125 270.536 128.471 270.96 128.728C271.384 128.985 271.859 129.145 272.352 129.199C272.845 129.252 273.343 129.196 273.812 129.036L292.194 149.293L294.19 143.357L275.876 124.488C275.554 123.718 274.961 123.093 274.21 122.73C273.458 122.368 272.599 122.294 271.797 122.523C270.994 122.752 270.303 123.267 269.855 123.971C269.407 124.675 269.232 125.519 269.365 126.343Z" fill="#D9D9D9"/>
<path d="M316.137 147.181C316.137 147.181 317.704 151.225 313.277 153.471C308.851 155.717 293.928 151.647 291.503 151.063C290.743 150.88 289.387 149.372 287.883 147.387C287.207 146.495 286.502 145.508 285.807 144.501C285.405 143.918 284.231 144.034 283.844 143.453C283.459 142.875 283.861 141.601 283.506 141.054C281.823 138.459 280.568 136.38 280.568 136.38L282.168 129.731C287.113 130.907 290.654 135.398 293.804 140.811L316.137 147.181Z" fill="#FEBD59"/>
<path d="M320.911 139.396C325.9 139.396 329.944 135.35 329.944 130.359C329.944 125.369 325.9 121.323 320.911 121.323C315.921 121.323 311.877 125.369 311.877 130.359C311.877 135.35 315.921 139.396 320.911 139.396Z" fill="#D9D9D9"/>
<path d="M331.223 125.185C330.76 124.439 330.095 123.839 329.305 123.454C328.516 123.069 327.634 122.915 326.761 123.01C326.6 121.907 326.139 120.868 325.429 120.009C324.719 119.149 323.787 118.5 322.734 118.133C321.681 117.767 320.548 117.696 319.457 117.929C318.367 118.162 317.362 118.69 316.55 119.455C316.284 119.267 315.973 119.151 315.648 119.119C315.324 119.086 314.996 119.138 314.697 119.27C314.102 119.54 313.585 119.956 313.192 120.478C312.2 121.716 311.562 123.199 311.346 124.77C311.13 126.342 311.344 127.942 311.965 129.401C311.754 128.633 312.523 127.91 313.301 127.738C314.079 127.566 314.895 127.729 315.683 127.616C316.694 127.473 317.603 126.886 318.615 126.754C319.473 126.698 320.335 126.809 321.151 127.08C321.967 127.351 322.827 127.467 323.686 127.421C324.538 127.319 325.636 130.549 325.621 132.824C325.618 133.255 325.707 133.809 326.128 133.9C326.647 134.013 326.948 133.297 327.441 133.102C327.669 133.037 327.913 133.062 328.122 133.173C328.331 133.285 328.489 133.473 328.562 133.698C328.624 133.927 328.631 134.167 328.581 134.399C328.532 134.631 328.428 134.848 328.278 135.032C327.974 135.396 327.614 135.708 327.211 135.957L327.414 136.127C327.607 136.331 327.865 136.461 328.144 136.496C328.422 136.53 328.704 136.467 328.941 136.316C329.408 136.001 329.785 135.571 330.038 135.067C330.991 133.593 331.672 131.961 332.049 130.246C332.422 128.515 332.126 126.708 331.223 125.185Z" fill="#232323"/>
<path d="M227.906 121.936C228.105 120.497 227.454 119.219 226.454 119.081C225.453 118.943 224.481 119.998 224.283 121.436C224.085 122.875 224.735 124.153 225.736 124.291C226.737 124.429 227.708 123.374 227.906 121.936Z" fill="#FEBD59"/>
<path d="M375.735 183.658H363.773C363.451 183.658 361.68 182.721 361.68 181.566V174.919C361.623 169.891 378.078 169.562 378.14 174.919V181.566C378.14 182.721 376.89 183.658 375.735 183.658Z" fill="#E6E6E6"/>
<path d="M376.354 170.413C375.773 170.206 375.157 170.117 374.542 170.154C374.707 170.099 374.858 170.011 374.986 169.894C374.873 169.889 374.761 169.874 374.652 169.849C374.531 169.826 374.417 169.775 374.32 169.7C374.272 169.662 374.234 169.613 374.209 169.556C374.185 169.5 374.175 169.438 374.181 169.377C374.203 169.225 374.345 169.1 374.33 168.947C374.314 168.772 374.111 168.686 374.003 168.547C373.937 168.443 373.907 168.319 373.917 168.196C373.928 168.073 373.978 167.956 374.06 167.864C374.163 167.744 374.289 167.646 374.43 167.576C374.192 167.515 373.941 167.519 373.704 167.587C373.828 167.491 373.921 167.36 373.972 167.211C374.023 167.063 374.03 166.903 373.991 166.75C373.925 166.56 373.813 166.388 373.665 166.251C373.517 166.114 373.337 166.015 373.142 165.964C372.751 165.865 372.347 165.832 371.945 165.867C372.286 165.762 372.235 165.227 371.974 164.983C371.713 164.739 371.34 164.637 371.094 164.378C370.847 164.119 370.867 163.567 371.222 163.524L371.178 163.397C370.995 163.329 370.799 163.301 370.604 163.315C370.409 163.328 370.219 163.384 370.048 163.478C369.876 163.571 369.727 163.701 369.609 163.857C369.492 164.013 369.409 164.193 369.368 164.384C369.303 164.789 369.424 165.237 369.221 165.593C368.962 166.047 368.333 166.099 367.813 166.048C367.302 165.917 366.76 165.991 366.303 166.254C366.161 166.373 366.059 166.533 366.012 166.712C365.965 166.891 365.975 167.08 366.04 167.253C366.106 167.427 366.223 167.575 366.377 167.678C366.531 167.781 366.713 167.834 366.898 167.829C366.556 167.831 366.215 167.876 365.884 167.963L366.203 168.087C366.274 168.109 366.339 168.145 366.395 168.195C366.422 168.22 366.441 168.253 366.449 168.289C366.456 168.325 366.452 168.363 366.438 168.397C366.387 168.49 366.255 168.487 366.15 168.471L365.457 168.367C365.494 168.379 365.528 168.4 365.556 168.427C365.585 168.454 365.607 168.487 365.62 168.524C365.634 168.561 365.639 168.6 365.636 168.64C365.632 168.679 365.62 168.717 365.6 168.75C365.58 168.784 365.553 168.813 365.52 168.835C365.488 168.857 365.451 168.871 365.412 168.877C365.373 168.883 365.333 168.88 365.296 168.868C365.258 168.856 365.224 168.837 365.195 168.81C365.266 168.893 365.323 168.987 365.365 169.089C365.385 169.14 365.392 169.195 365.387 169.249C365.381 169.304 365.362 169.356 365.332 169.402C365.264 169.465 365.177 169.505 365.084 169.516C364.992 169.528 364.898 169.51 364.816 169.465C364.76 169.443 364.703 169.418 364.645 169.395C364.647 169.415 364.648 169.435 364.651 169.455C364.669 169.587 364.716 169.714 364.786 169.827C364.857 169.94 364.95 170.037 365.06 170.112C364.745 170.148 364.456 170.301 364.248 170.539C364.072 170.758 363.972 171.027 363.962 171.307C363.953 171.587 364.034 171.863 364.194 172.093C363.844 171.938 363.461 171.875 363.08 171.908C362.891 171.932 362.717 172.024 362.591 172.167C362.465 172.31 362.396 172.495 362.397 172.685C362.46 173.169 363.059 173.346 363.543 173.406C367.347 173.874 371.195 173.873 374.999 173.404C375.516 173.369 376.022 173.24 376.493 173.024C376.727 172.913 376.929 172.745 377.081 172.535C377.233 172.325 377.329 172.08 377.361 171.822C377.351 171.514 377.25 171.216 377.071 170.965C376.891 170.714 376.642 170.522 376.354 170.413Z" fill="#D9D9D9"/>
<path d="M379.178 176.015C379.136 175.832 379.033 175.669 378.886 175.553C378.739 175.437 378.557 175.374 378.369 175.374C378.001 175.384 377.673 175.647 377.312 175.589C377.012 175.542 376.776 175.28 376.475 175.32C376.199 175.356 376.05 175.626 375.844 175.772H375.315C375.109 175.609 375.008 175.281 374.722 175.189C374.292 175.05 373.947 175.536 373.496 175.622C373.236 175.65 372.972 175.6 372.74 175.477C372.513 175.354 372.267 175.27 372.012 175.23C371.9 175.214 371.785 175.229 371.681 175.274C371.577 175.32 371.488 175.394 371.425 175.488C371.439 175.351 371.26 175.216 371.079 175.208C370.876 175.215 370.679 175.276 370.508 175.383C370.336 175.491 370.136 175.548 369.933 175.548C369.483 175.509 369.262 174.983 368.81 174.977C368.24 174.97 368.012 175.781 367.449 175.712C367.156 175.676 366.998 175.41 366.737 175.296C366.459 175.211 366.163 175.208 365.885 175.288L364.552 175.538C364.161 175.645 363.75 175.649 363.357 175.549C363.071 175.446 362.793 175.222 362.499 175.307C362.242 175.381 362.117 175.669 361.845 175.684C361.671 175.662 361.504 175.605 361.353 175.516C361.212 175.466 361.06 175.459 360.915 175.495C360.77 175.532 360.639 175.61 360.539 175.721C360.39 176.329 360.365 176.961 360.468 177.578C360.464 177.71 360.474 177.842 360.499 177.971L361.839 183.336C361.997 184.158 362.403 184.753 363.241 184.753H376.267C376.673 184.753 377.066 184.612 377.379 184.353C377.692 184.094 377.905 183.735 377.981 183.336L379.321 177.971C379.324 177.957 379.326 177.943 379.328 177.93C379.36 177.288 379.309 176.644 379.178 176.015Z" fill="#CCCCCC"/>
<path opacity="0.2" d="M363.251 175.611L363.512 178.997C363.599 180.126 363.47 181.239 363.557 182.368C363.606 183.004 363.87 183.655 363.919 184.291C363.925 184.365 364.042 184.366 364.036 184.291L363.776 180.904L363.515 177.518L363.369 175.611C363.363 175.536 363.246 175.536 363.251 175.611V175.611Z" fill="#232323"/>
<path opacity="0.2" d="M365.514 175.745L365.615 179.082L365.716 182.419L365.773 184.292C365.775 184.367 365.892 184.368 365.89 184.292L365.789 180.955L365.688 177.619L365.631 175.745C365.628 175.67 365.511 175.67 365.514 175.745Z" fill="#232323"/>
<path opacity="0.2" d="M367.705 175.945L367.674 179.17L367.644 182.375L367.626 184.193C367.627 184.208 367.633 184.223 367.644 184.233C367.655 184.244 367.67 184.25 367.685 184.25C367.7 184.25 367.715 184.244 367.725 184.233C367.736 184.223 367.743 184.208 367.743 184.193L367.774 180.968L367.805 177.763L367.822 175.945C367.822 175.93 367.815 175.916 367.804 175.905C367.793 175.895 367.779 175.889 367.764 175.889C367.748 175.889 367.734 175.895 367.723 175.905C367.712 175.916 367.706 175.93 367.705 175.945Z" fill="#232323"/>
<path opacity="0.2" d="M369.361 175.847L369.425 179.111L369.489 182.356L369.525 184.194C369.525 184.209 369.531 184.224 369.542 184.234C369.553 184.245 369.568 184.251 369.583 184.251C369.598 184.251 369.613 184.245 369.624 184.234C369.635 184.224 369.641 184.209 369.642 184.194L369.578 180.929L369.514 177.684L369.478 175.847C369.477 175.832 369.471 175.817 369.46 175.807C369.449 175.796 369.434 175.79 369.419 175.79C369.404 175.79 369.39 175.796 369.379 175.807C369.368 175.817 369.361 175.832 369.361 175.847Z" fill="#232323"/>
<path opacity="0.2" d="M371.774 175.713L371.847 179.064L371.92 182.416L371.961 184.292C371.962 184.307 371.968 184.322 371.979 184.332C371.99 184.343 372.004 184.349 372.02 184.349C372.035 184.349 372.049 184.343 372.06 184.332C372.071 184.322 372.078 184.307 372.078 184.292L372.005 180.941L371.932 177.589L371.891 175.713C371.89 175.698 371.884 175.683 371.873 175.672C371.862 175.662 371.847 175.656 371.832 175.656C371.817 175.656 371.802 175.662 371.791 175.672C371.781 175.683 371.774 175.698 371.774 175.713Z" fill="#232323"/>
<path opacity="0.2" d="M373.777 175.814L374.032 179.191L374.287 182.559L374.431 184.457C374.437 184.531 374.554 184.532 374.548 184.457L374.293 181.079L374.038 177.712L373.894 175.814C373.888 175.74 373.771 175.739 373.777 175.814Z" fill="#232323"/>
<path opacity="0.2" d="M376.002 176.208L376.156 179.298C376.207 180.328 375.947 181.358 375.998 182.388L376.084 184.123C376.088 184.198 376.205 184.199 376.201 184.123C376.15 183.093 376.411 182.063 376.36 181.033L376.206 177.943L376.119 176.208C376.115 176.133 375.998 176.132 376.002 176.208Z" fill="#232323"/>
<path d="M369.206 167.742C369.455 167.742 369.656 167.602 369.656 167.429C369.656 167.256 369.455 167.116 369.206 167.116C368.958 167.116 368.757 167.256 368.757 167.429C368.757 167.602 368.958 167.742 369.206 167.742Z" fill="#E6E6E6"/>
<path d="M372.06 168.446C372.309 168.446 372.51 168.306 372.51 168.133C372.51 167.96 372.309 167.82 372.06 167.82C371.812 167.82 371.611 167.96 371.611 168.133C371.611 168.306 371.812 168.446 372.06 168.446Z" fill="#FEBD59"/>
<path d="M368.073 169.971C368.321 169.971 368.522 169.831 368.522 169.658C368.522 169.486 368.321 169.345 368.073 169.345C367.824 169.345 367.623 169.486 367.623 169.658C367.623 169.831 367.824 169.971 368.073 169.971Z" fill="#FF6584"/>
<path d="M371.79 170.384C371.947 170.384 372.075 170.295 372.075 170.186C372.075 170.077 371.947 169.988 371.79 169.988C371.634 169.988 371.506 170.077 371.506 170.186C371.506 170.295 371.634 170.384 371.79 170.384Z" fill="#E6E6E6"/>
<path d="M373.594 170.828C373.751 170.828 373.878 170.74 373.878 170.631C373.878 170.521 373.751 170.433 373.594 170.433C373.437 170.433 373.31 170.521 373.31 170.631C373.31 170.74 373.437 170.828 373.594 170.828Z" fill="#FEBD59"/>
<path d="M371.074 171.792C371.231 171.792 371.358 171.704 371.358 171.595C371.358 171.485 371.231 171.397 371.074 171.397C370.917 171.397 370.79 171.485 370.79 171.595C370.79 171.704 370.917 171.792 371.074 171.792Z" fill="#FF6584"/>
<path d="M374.449 171.479C374.606 171.479 374.733 171.39 374.733 171.281C374.733 171.172 374.606 171.083 374.449 171.083C374.292 171.083 374.165 171.172 374.165 171.281C374.165 171.39 374.292 171.479 374.449 171.479Z" fill="#E6E6E6"/>
<path d="M376.253 171.923C376.41 171.923 376.537 171.835 376.537 171.726C376.537 171.616 376.41 171.528 376.253 171.528C376.096 171.528 375.969 171.616 375.969 171.726C375.969 171.835 376.096 171.923 376.253 171.923Z" fill="#FEBD59"/>
<path d="M373.732 172.887C373.889 172.887 374.017 172.799 374.017 172.69C374.017 172.58 373.889 172.492 373.732 172.492C373.575 172.492 373.448 172.58 373.448 172.69C373.448 172.799 373.575 172.887 373.732 172.887Z" fill="#FF6584"/>
<path d="M367.124 170.436C367.145 170.28 367.075 170.142 366.967 170.127C366.859 170.112 366.754 170.226 366.733 170.382C366.711 170.537 366.782 170.675 366.89 170.69C366.997 170.705 367.102 170.591 367.124 170.436Z" fill="#E6E6E6"/>
<path d="M366.435 172.161C366.456 172.006 366.386 171.868 366.278 171.853C366.17 171.838 366.065 171.952 366.044 172.108C366.023 172.263 366.093 172.401 366.201 172.416C366.309 172.431 366.413 172.317 366.435 172.161Z" fill="#FEBD59"/>
<path d="M365.826 169.533C365.848 169.378 365.778 169.24 365.67 169.225C365.562 169.21 365.457 169.324 365.435 169.479C365.414 169.635 365.484 169.773 365.592 169.788C365.7 169.803 365.805 169.689 365.826 169.533Z" fill="#FF6584"/>
<path d="M370.212 169.497C370.234 169.341 370.164 169.203 370.056 169.188C369.948 169.174 369.843 169.288 369.821 169.443C369.8 169.599 369.87 169.737 369.978 169.752C370.086 169.766 370.191 169.652 370.212 169.497Z" fill="#E6E6E6"/>
<path d="M369.525 171.224C369.547 171.068 369.477 170.93 369.369 170.915C369.261 170.9 369.156 171.014 369.135 171.17C369.113 171.325 369.183 171.463 369.291 171.478C369.399 171.493 369.504 171.379 369.525 171.224Z" fill="#FEBD59"/>
<path d="M368.915 168.595C368.936 168.439 368.866 168.301 368.758 168.286C368.65 168.271 368.545 168.385 368.524 168.541C368.503 168.696 368.573 168.834 368.681 168.849C368.789 168.864 368.893 168.75 368.915 168.595Z" fill="#FF6584"/>
<path d="M371.05 167.587C371.072 167.431 371.002 167.293 370.894 167.278C370.786 167.263 370.681 167.377 370.659 167.533C370.638 167.688 370.708 167.826 370.816 167.841C370.924 167.856 371.029 167.742 371.05 167.587Z" fill="#FEBD59"/>
<path d="M370.44 164.958C370.461 164.802 370.391 164.664 370.283 164.649C370.175 164.634 370.07 164.748 370.049 164.904C370.027 165.059 370.098 165.197 370.205 165.212C370.313 165.227 370.418 165.113 370.44 164.958Z" fill="#FF6584"/>
<path d="M454 281.372C453.578 282.624 0.455707 281.819 0 280.571C0.421821 279.317 453.544 280.121 454 281.372Z" fill="#CCCCCC"/>
<path d="M176.316 216.336C173.467 216.336 170.683 215.491 168.314 213.908C165.946 212.325 164.1 210.076 163.01 207.443C161.92 204.811 161.635 201.914 162.19 199.12C162.746 196.326 164.118 193.759 166.132 191.744C168.146 189.729 170.712 188.357 173.506 187.801C176.3 187.246 179.195 187.531 181.827 188.621C184.459 189.712 186.708 191.558 188.29 193.927C189.873 196.296 190.718 199.081 190.718 201.93C190.718 205.751 189.2 209.415 186.499 212.117C183.798 214.818 180.135 216.336 176.316 216.336Z" fill="#C86D50"/>
<path d="M181.998 200.509H177.736V196.246C177.736 195.869 177.587 195.508 177.32 195.241C177.054 194.975 176.692 194.825 176.316 194.825C175.939 194.825 175.578 194.975 175.311 195.241C175.045 195.508 174.895 195.869 174.895 196.246V200.509H170.633C170.257 200.51 169.896 200.66 169.63 200.927C169.364 201.193 169.215 201.554 169.215 201.93C169.215 202.307 169.364 202.668 169.63 202.934C169.896 203.201 170.257 203.351 170.633 203.351H174.895V207.615C174.896 207.991 175.046 208.352 175.312 208.618C175.578 208.883 175.939 209.033 176.316 209.033C176.692 209.033 177.053 208.883 177.319 208.618C177.586 208.352 177.736 207.991 177.736 207.615V203.351H181.998C182.185 203.352 182.37 203.315 182.543 203.244C182.715 203.173 182.872 203.068 183.005 202.936C183.137 202.804 183.242 202.647 183.313 202.475C183.385 202.302 183.422 202.117 183.422 201.93C183.422 201.744 183.385 201.559 183.313 201.386C183.242 201.213 183.137 201.057 183.005 200.925C182.872 200.793 182.715 200.688 182.543 200.617C182.37 200.546 182.185 200.509 181.998 200.509Z" fill="white"/>
<path d="M218.451 216.336C215.603 216.336 212.818 215.491 210.45 213.908C208.082 212.325 206.236 210.076 205.146 207.443C204.056 204.811 203.77 201.914 204.326 199.12C204.882 196.326 206.253 193.759 208.268 191.744C210.282 189.729 212.848 188.357 215.641 187.801C218.435 187.246 221.331 187.531 223.963 188.621C226.594 189.712 228.843 191.558 230.426 193.927C232.008 196.296 232.853 199.081 232.853 201.93C232.853 205.751 231.336 209.415 228.635 212.117C225.934 214.818 222.271 216.336 218.451 216.336Z" fill="#E6E6E6"/>
<path d="M224.134 200.509H212.768C212.392 200.51 212.032 200.66 211.766 200.927C211.5 201.193 211.351 201.554 211.351 201.93C211.351 202.307 211.5 202.668 211.766 202.934C212.032 203.201 212.392 203.351 212.768 203.351H224.134C224.321 203.352 224.506 203.315 224.678 203.244C224.851 203.173 225.008 203.068 225.14 202.936C225.272 202.804 225.377 202.647 225.449 202.475C225.52 202.302 225.557 202.117 225.557 201.93C225.557 201.744 225.52 201.559 225.449 201.386C225.377 201.213 225.272 201.057 225.14 200.925C225.008 200.793 224.851 200.688 224.678 200.617C224.506 200.545 224.321 200.509 224.134 200.509Z" fill="white"/>
<path d="M260.587 216.336C257.738 216.336 254.954 215.491 252.585 213.908C250.217 212.325 248.371 210.076 247.281 207.443C246.191 204.811 245.906 201.914 246.462 199.12C247.017 196.326 248.389 193.759 250.403 191.744C252.417 189.729 254.983 188.357 257.777 187.801C260.571 187.246 263.466 187.531 266.098 188.621C268.73 189.712 270.979 191.558 272.561 193.927C274.144 196.296 274.989 199.081 274.989 201.93C274.989 205.751 273.471 209.415 270.77 212.117C268.069 214.818 264.406 216.336 260.587 216.336Z" fill="#DDF00F"/>
<path d="M268.689 201.246L264.606 195.285C264.424 195.02 264.145 194.838 263.83 194.779C263.514 194.72 263.188 194.789 262.923 194.97C262.658 195.152 262.476 195.431 262.417 195.747C262.358 196.063 262.427 196.389 262.608 196.654L265.249 200.509H254.904C254.717 200.509 254.532 200.545 254.36 200.617C254.187 200.688 254.03 200.793 253.898 200.925C253.765 201.057 253.661 201.213 253.589 201.386C253.517 201.559 253.481 201.744 253.481 201.93C253.481 202.117 253.517 202.302 253.589 202.475C253.661 202.647 253.765 202.804 253.898 202.936C254.03 203.068 254.187 203.173 254.36 203.244C254.532 203.315 254.717 203.352 254.904 203.351H265.379L262.608 207.396C262.427 207.661 262.359 207.987 262.418 208.302C262.478 208.618 262.66 208.897 262.924 209.078C263.189 209.259 263.514 209.328 263.83 209.27C264.145 209.211 264.424 209.03 264.606 208.765L268.689 202.804C268.822 202.566 268.892 202.298 268.892 202.025C268.892 201.752 268.822 201.484 268.689 201.246Z" fill="white"/>
<path d="M155.978 45.9341H137.03C135.606 45.9341 134.452 47.0882 134.452 48.5118V48.5118C134.452 49.9355 135.606 51.0896 137.03 51.0896H155.978C157.401 51.0896 158.555 49.9355 158.555 48.5118C158.555 47.0882 157.401 45.9341 155.978 45.9341Z" fill="#D9D9D9"/>
<path d="M168.219 56.245H124.789C123.365 56.245 122.212 57.3991 122.212 58.8228V58.8228C122.212 60.2464 123.365 61.4005 124.789 61.4005H168.219C169.642 61.4005 170.796 60.2464 170.796 58.8228C170.796 57.3991 169.642 56.245 168.219 56.245Z" fill="#E6E6E6"/>
<path d="M168.219 66.556H124.789C123.365 66.556 122.212 67.71 122.212 69.1337V69.1337C122.212 70.5573 123.365 71.7114 124.789 71.7114H168.219C169.642 71.7114 170.796 70.5573 170.796 69.1337C170.796 67.71 169.642 66.556 168.219 66.556Z" fill="#E6E6E6"/>
<path d="M165.541 121.906H164.44V80.5872H85.9143V79.486H165.541V121.906Z" fill="#E6E6E6"/>
<path d="M73.6448 92.1296C82.09 92.1296 88.9363 85.2815 88.9363 76.834C88.9363 68.3865 82.09 61.5384 73.6448 61.5384C65.1995 61.5384 58.3533 68.3865 58.3533 76.834C58.3533 85.2815 65.1995 92.1296 73.6448 92.1296Z" fill="#E6E6E6"/>
<path d="M71.5587 84.7946C71.2947 84.7946 71.0342 84.7331 70.798 84.615C70.5619 84.4968 70.3565 84.3253 70.1981 84.1139L66.0263 78.55C65.892 78.3713 65.7942 78.1678 65.7386 77.9513C65.6829 77.7347 65.6705 77.5093 65.702 77.288C65.7335 77.0666 65.8083 76.8536 65.9221 76.6612C66.0359 76.4688 66.1866 76.3007 66.3654 76.1665C66.5442 76.0324 66.7478 75.9348 66.9643 75.8794C67.1809 75.8239 67.4062 75.8118 67.6275 75.8435C67.8488 75.8753 68.0616 75.9503 68.2538 76.0644C68.4461 76.1785 68.614 76.3294 68.7479 76.5084L71.4772 80.1482L78.487 69.6307C78.6109 69.4446 78.7701 69.2847 78.9558 69.1601C79.1414 69.0356 79.3497 68.9489 79.5689 68.905C79.788 68.861 80.0137 68.8607 80.2329 68.904C80.4522 68.9474 80.6608 69.0335 80.8468 69.1575C81.0327 69.2815 81.1924 69.441 81.3168 69.6268C81.4411 69.8126 81.5276 70.021 81.5713 70.2403C81.6151 70.4595 81.6152 70.6853 81.5717 70.9045C81.5281 71.1238 81.4418 71.3324 81.3177 71.5183L72.9742 84.0369C72.8232 84.2633 72.6202 84.4503 72.3822 84.582C72.1441 84.7137 71.878 84.7865 71.6061 84.7941C71.5903 84.7944 71.5745 84.7946 71.5587 84.7946Z" fill="white"/>
<path d="M269.264 119.727H268.163V77.3078H347.79V78.409H269.264V119.727Z" fill="#E6E6E6"/>
<path d="M360 89.9515C368.446 89.9515 375.292 83.1034 375.292 74.6558C375.292 66.2083 368.446 59.3602 360 59.3602C351.555 59.3602 344.709 66.2083 344.709 74.6558C344.709 83.1034 351.555 89.9515 360 89.9515Z" fill="#E6E6E6"/>
<path d="M357.914 82.6165C357.65 82.6165 357.39 82.555 357.154 82.4368C356.917 82.3187 356.712 82.1471 356.554 81.9358L352.382 76.3718C352.248 76.1931 352.15 75.9897 352.094 75.7731C352.038 75.5566 352.026 75.3312 352.057 75.1098C352.089 74.8884 352.164 74.6755 352.278 74.483C352.391 74.2906 352.542 74.1225 352.721 73.9884C352.9 73.8542 353.103 73.7566 353.32 73.7012C353.536 73.6458 353.762 73.6336 353.983 73.6654C354.204 73.6971 354.417 73.7722 354.609 73.8863C354.802 74.0004 354.969 74.1512 355.103 74.3303L357.833 77.9701L364.843 67.4525C364.966 67.2664 365.126 67.1065 365.311 66.982C365.497 66.8575 365.705 66.7708 365.924 66.7268C366.144 66.6829 366.369 66.6826 366.588 66.7259C366.808 66.7692 367.016 66.8554 367.202 66.9794C367.388 67.1034 367.548 67.2628 367.672 67.4486C367.797 67.6344 367.883 67.8429 367.927 68.0621C367.971 68.2814 367.971 68.5071 367.927 68.7264C367.884 68.9457 367.797 69.1542 367.673 69.3402L359.33 81.8588C359.179 82.0852 358.976 82.2721 358.738 82.4038C358.5 82.5356 358.234 82.6083 357.962 82.6159C357.946 82.6162 357.93 82.6165 357.914 82.6165Z" fill="white"/>
<path d="M169.916 126.788H157.954C157.633 126.788 155.862 125.851 155.862 124.695V118.048C155.805 113.021 172.259 112.692 172.321 118.048V124.695C172.321 125.851 171.072 126.788 169.916 126.788Z" fill="#E6E6E6"/>
<path d="M170.535 113.543C169.955 113.335 169.339 113.247 168.724 113.283C168.888 113.229 169.039 113.14 169.167 113.023C169.055 113.019 168.943 113.003 168.833 112.978C168.713 112.955 168.599 112.904 168.501 112.829C168.453 112.791 168.415 112.742 168.391 112.686C168.367 112.629 168.357 112.568 168.362 112.507C168.385 112.354 168.527 112.229 168.512 112.076C168.495 111.901 168.293 111.816 168.185 111.677C168.119 111.572 168.089 111.449 168.099 111.326C168.109 111.202 168.16 111.086 168.242 110.993C168.345 110.874 168.471 110.776 168.612 110.706C168.373 110.644 168.122 110.648 167.885 110.716C168.01 110.62 168.103 110.49 168.154 110.341C168.205 110.192 168.212 110.032 168.173 109.88C168.106 109.689 167.995 109.517 167.847 109.38C167.699 109.243 167.519 109.144 167.324 109.093C166.933 108.995 166.528 108.962 166.127 108.996C166.468 108.891 166.417 108.356 166.156 108.113C165.895 107.869 165.521 107.767 165.275 107.508C165.029 107.249 165.049 106.696 165.404 106.653L165.36 106.527C165.177 106.458 164.981 106.43 164.786 106.444C164.591 106.458 164.401 106.513 164.229 106.607C164.058 106.701 163.908 106.83 163.791 106.986C163.673 107.143 163.591 107.323 163.549 107.514C163.484 107.919 163.605 108.366 163.402 108.723C163.143 109.177 162.515 109.228 161.995 109.178C161.484 109.047 160.942 109.121 160.485 109.384C160.343 109.502 160.241 109.662 160.194 109.841C160.147 110.02 160.157 110.21 160.222 110.383C160.287 110.556 160.405 110.705 160.559 110.808C160.712 110.911 160.895 110.964 161.08 110.959C160.737 110.961 160.397 111.006 160.065 111.092L160.384 111.216C160.455 111.238 160.521 111.275 160.576 111.324C160.604 111.349 160.623 111.382 160.63 111.419C160.638 111.455 160.634 111.493 160.619 111.527C160.568 111.619 160.437 111.616 160.332 111.6L159.639 111.496C159.676 111.508 159.71 111.529 159.738 111.556C159.766 111.584 159.788 111.617 159.802 111.654C159.816 111.69 159.821 111.73 159.818 111.769C159.814 111.808 159.802 111.846 159.782 111.88C159.762 111.914 159.735 111.943 159.702 111.964C159.669 111.986 159.632 112.001 159.594 112.006C159.555 112.012 159.515 112.009 159.478 111.997C159.44 111.986 159.406 111.966 159.377 111.939C159.448 112.023 159.505 112.117 159.546 112.218C159.566 112.269 159.574 112.324 159.568 112.379C159.563 112.433 159.544 112.486 159.514 112.532C159.445 112.595 159.359 112.635 159.266 112.646C159.173 112.657 159.08 112.639 158.998 112.595C158.941 112.573 158.884 112.548 158.827 112.524C158.828 112.544 158.83 112.565 158.832 112.585C158.851 112.717 158.897 112.843 158.968 112.956C159.038 113.069 159.131 113.166 159.241 113.241C158.927 113.278 158.637 113.43 158.429 113.669C158.254 113.887 158.153 114.157 158.144 114.437C158.134 114.717 158.216 114.993 158.376 115.222C158.026 115.068 157.643 115.004 157.262 115.038C157.072 115.061 156.898 115.153 156.772 115.296C156.647 115.44 156.578 115.624 156.579 115.815C156.642 116.298 157.241 116.475 157.724 116.535C161.529 117.003 165.376 117.003 169.181 116.534C169.698 116.499 170.204 116.37 170.674 116.154C170.909 116.043 171.111 115.874 171.263 115.664C171.415 115.454 171.511 115.209 171.543 114.952C171.533 114.644 171.432 114.345 171.253 114.095C171.073 113.844 170.824 113.652 170.535 113.543Z" fill="#D9D9D9"/>
<path d="M173.359 119.144C173.317 118.962 173.214 118.799 173.067 118.682C172.92 118.566 172.738 118.503 172.551 118.504C172.183 118.514 171.854 118.776 171.493 118.719C171.194 118.671 170.958 118.409 170.657 118.449C170.38 118.486 170.232 118.756 170.026 118.901H169.497C169.291 118.739 169.19 118.41 168.904 118.318C168.474 118.179 168.129 118.665 167.678 118.751C167.417 118.78 167.154 118.73 166.922 118.607C166.695 118.483 166.449 118.4 166.194 118.36C166.081 118.343 165.967 118.358 165.863 118.404C165.759 118.45 165.67 118.524 165.606 118.618C165.62 118.48 165.442 118.346 165.261 118.337C165.058 118.344 164.861 118.405 164.69 118.513C164.517 118.621 164.318 118.678 164.115 118.677C163.665 118.638 163.444 118.112 162.992 118.106C162.422 118.099 162.194 118.911 161.63 118.842C161.338 118.806 161.179 118.54 160.918 118.426C160.641 118.341 160.345 118.338 160.066 118.417L158.734 118.667C158.343 118.775 157.931 118.779 157.539 118.679C157.253 118.575 156.975 118.351 156.68 118.437C156.424 118.511 156.298 118.798 156.027 118.813C155.853 118.791 155.686 118.734 155.535 118.645C155.394 118.595 155.242 118.588 155.097 118.625C154.952 118.661 154.821 118.74 154.72 118.851C154.571 119.458 154.547 120.09 154.649 120.708C154.645 120.84 154.656 120.971 154.68 121.101L156.021 126.465C156.178 127.288 156.585 127.883 157.422 127.883H170.448C170.854 127.883 171.248 127.741 171.561 127.483C171.874 127.224 172.087 126.864 172.163 126.465L173.503 121.101C173.506 121.087 173.507 121.073 173.51 121.059C173.542 120.417 173.491 119.774 173.359 119.144Z" fill="#CCCCCC"/>
<path opacity="0.2" d="M157.433 118.741L157.694 122.127C157.78 123.256 157.652 124.369 157.739 125.497C157.788 126.133 158.052 126.784 158.101 127.42C158.106 127.495 158.224 127.496 158.218 127.42L157.958 124.034L157.697 120.648L157.55 118.741C157.545 118.666 157.427 118.665 157.433 118.741L157.433 118.741Z" fill="#232323"/>
<path opacity="0.2" d="M159.695 118.875L159.797 122.211L159.898 125.548L159.955 127.422C159.957 127.497 160.074 127.497 160.072 127.422L159.97 124.085L159.869 120.748L159.812 118.875C159.81 118.799 159.693 118.799 159.695 118.875Z" fill="#232323"/>
<path opacity="0.2" d="M161.887 119.075L161.856 122.3L161.825 125.505L161.808 127.322C161.808 127.338 161.815 127.352 161.826 127.363C161.837 127.373 161.851 127.379 161.866 127.379C161.882 127.379 161.896 127.373 161.907 127.363C161.918 127.352 161.924 127.338 161.925 127.322L161.956 124.098L161.986 120.892L162.004 119.075C162.003 119.06 161.997 119.045 161.986 119.035C161.975 119.024 161.96 119.018 161.945 119.018C161.93 119.018 161.915 119.024 161.905 119.035C161.894 119.045 161.887 119.06 161.887 119.075Z" fill="#232323"/>
<path opacity="0.2" d="M163.542 118.976L163.607 122.241L163.67 125.486L163.706 127.323C163.707 127.339 163.713 127.353 163.724 127.364C163.735 127.374 163.75 127.38 163.765 127.38C163.78 127.38 163.795 127.374 163.805 127.364C163.816 127.353 163.823 127.339 163.823 127.323L163.759 124.059L163.696 120.814L163.66 118.976C163.659 118.961 163.653 118.947 163.642 118.936C163.631 118.925 163.616 118.919 163.601 118.919C163.586 118.919 163.571 118.925 163.56 118.936C163.549 118.947 163.543 118.961 163.542 118.976Z" fill="#232323"/>
<path opacity="0.2" d="M165.955 118.842L166.029 122.194L166.102 125.546L166.143 127.422C166.143 127.437 166.15 127.451 166.161 127.462C166.171 127.472 166.186 127.478 166.201 127.478C166.216 127.478 166.231 127.472 166.242 127.462C166.253 127.451 166.259 127.437 166.26 127.422L166.187 124.07L166.113 120.718L166.072 118.842C166.072 118.827 166.065 118.813 166.055 118.802C166.044 118.791 166.029 118.785 166.014 118.785C165.999 118.785 165.984 118.791 165.973 118.802C165.962 118.813 165.956 118.827 165.955 118.842Z" fill="#232323"/>
<path opacity="0.2" d="M167.958 118.944L168.214 122.321L168.469 125.688L168.613 127.586C168.619 127.661 168.736 127.661 168.73 127.586L168.474 124.209L168.219 120.842L168.076 118.944C168.07 118.869 167.953 118.868 167.958 118.944Z" fill="#232323"/>
<path opacity="0.2" d="M170.184 119.337L170.338 122.427C170.389 123.457 170.128 124.487 170.18 125.517L170.266 127.252C170.27 127.328 170.387 127.328 170.383 127.252C170.332 126.222 170.593 125.192 170.541 124.162L170.387 121.072L170.301 119.337C170.297 119.262 170.18 119.262 170.184 119.337Z" fill="#232323"/>
<path d="M163.388 110.872C163.636 110.872 163.838 110.731 163.838 110.559C163.838 110.386 163.636 110.246 163.388 110.246C163.14 110.246 162.938 110.386 162.938 110.559C162.938 110.731 163.14 110.872 163.388 110.872Z" fill="#E6E6E6"/>
<path d="M166.242 111.576C166.49 111.576 166.692 111.435 166.692 111.263C166.692 111.09 166.49 110.95 166.242 110.95C165.994 110.95 165.792 111.09 165.792 111.263C165.792 111.435 165.994 111.576 166.242 111.576Z" fill="#FEBD59"/>
<path d="M162.254 113.101C162.503 113.101 162.704 112.961 162.704 112.788C162.704 112.615 162.503 112.475 162.254 112.475C162.006 112.475 161.805 112.615 161.805 112.788C161.805 112.961 162.006 113.101 162.254 113.101Z" fill="#FF6584"/>
<path d="M165.972 113.513C166.129 113.513 166.256 113.424 166.256 113.315C166.256 113.206 166.129 113.118 165.972 113.118C165.815 113.118 165.688 113.206 165.688 113.315C165.688 113.424 165.815 113.513 165.972 113.513Z" fill="#E6E6E6"/>
<path d="M167.776 113.958C167.933 113.958 168.06 113.869 168.06 113.76C168.06 113.651 167.933 113.562 167.776 113.562C167.619 113.562 167.492 113.651 167.492 113.76C167.492 113.869 167.619 113.958 167.776 113.958Z" fill="#FEBD59"/>
<path d="M165.256 114.922C165.413 114.922 165.54 114.833 165.54 114.724C165.54 114.615 165.413 114.526 165.256 114.526C165.099 114.526 164.971 114.615 164.971 114.724C164.971 114.833 165.099 114.922 165.256 114.922Z" fill="#FF6584"/>
<path d="M168.631 114.608C168.788 114.608 168.915 114.519 168.915 114.41C168.915 114.301 168.788 114.213 168.631 114.213C168.474 114.213 168.346 114.301 168.346 114.41C168.346 114.519 168.474 114.608 168.631 114.608Z" fill="#E6E6E6"/>
<path d="M170.434 115.053C170.591 115.053 170.719 114.964 170.719 114.855C170.719 114.746 170.591 114.657 170.434 114.657C170.277 114.657 170.15 114.746 170.15 114.855C170.15 114.964 170.277 115.053 170.434 115.053Z" fill="#FEBD59"/>
<path d="M167.914 116.017C168.071 116.017 168.198 115.928 168.198 115.819C168.198 115.71 168.071 115.621 167.914 115.621C167.757 115.621 167.63 115.71 167.63 115.819C167.63 115.928 167.757 116.017 167.914 116.017Z" fill="#FF6584"/>
<path d="M161.305 113.565C161.327 113.409 161.257 113.271 161.149 113.256C161.041 113.242 160.936 113.356 160.915 113.511C160.893 113.667 160.963 113.805 161.071 113.82C161.179 113.834 161.284 113.72 161.305 113.565Z" fill="#E6E6E6"/>
<path d="M160.619 115.292C160.64 115.136 160.57 114.998 160.462 114.983C160.354 114.968 160.249 115.082 160.228 115.238C160.206 115.393 160.276 115.531 160.384 115.546C160.492 115.561 160.597 115.447 160.619 115.292Z" fill="#FEBD59"/>
<path d="M160.008 112.663C160.029 112.507 159.959 112.369 159.851 112.354C159.743 112.339 159.639 112.453 159.617 112.609C159.596 112.764 159.666 112.902 159.774 112.917C159.882 112.932 159.987 112.818 160.008 112.663Z" fill="#FF6584"/>
<path d="M164.394 112.626C164.415 112.471 164.345 112.333 164.237 112.318C164.129 112.303 164.025 112.417 164.003 112.572C163.982 112.728 164.052 112.866 164.16 112.881C164.268 112.896 164.373 112.782 164.394 112.626Z" fill="#E6E6E6"/>
<path d="M163.707 114.353C163.729 114.197 163.658 114.059 163.551 114.044C163.443 114.03 163.338 114.144 163.316 114.299C163.295 114.455 163.365 114.593 163.473 114.608C163.581 114.622 163.686 114.508 163.707 114.353Z" fill="#FEBD59"/>
<path d="M163.097 111.724C163.118 111.569 163.048 111.43 162.94 111.416C162.832 111.401 162.727 111.515 162.706 111.67C162.684 111.826 162.754 111.964 162.862 111.979C162.97 111.994 163.075 111.88 163.097 111.724Z" fill="#FF6584"/>
<path d="M165.231 110.716C165.252 110.56 165.182 110.422 165.074 110.407C164.966 110.392 164.861 110.506 164.84 110.662C164.818 110.817 164.889 110.955 164.996 110.97C165.104 110.985 165.209 110.871 165.231 110.716Z" fill="#FEBD59"/>
<path d="M164.621 108.087C164.643 107.932 164.573 107.794 164.465 107.779C164.357 107.764 164.252 107.878 164.23 108.033C164.209 108.189 164.279 108.327 164.387 108.342C164.495 108.357 164.6 108.243 164.621 108.087Z" fill="#FF6584"/>
<path d="M275.28 124.466H263.318C262.997 124.466 261.226 123.529 261.226 122.373V115.726C261.169 110.699 277.623 110.37 277.685 115.726V122.373C277.685 123.529 276.436 124.466 275.28 124.466Z" fill="#E6E6E6"/>
<path d="M275.899 111.221C275.319 111.013 274.703 110.925 274.088 110.961C274.252 110.907 274.403 110.818 274.531 110.701C274.419 110.697 274.307 110.682 274.197 110.656C274.077 110.633 273.963 110.583 273.865 110.508C273.817 110.47 273.779 110.42 273.755 110.364C273.731 110.307 273.721 110.246 273.726 110.185C273.749 110.033 273.891 109.908 273.876 109.755C273.859 109.579 273.657 109.494 273.549 109.355C273.483 109.25 273.453 109.127 273.463 109.004C273.473 108.88 273.524 108.764 273.606 108.672C273.709 108.552 273.835 108.454 273.976 108.384C273.737 108.322 273.486 108.326 273.25 108.394C273.374 108.298 273.467 108.168 273.518 108.019C273.569 107.87 273.575 107.71 273.536 107.558C273.47 107.367 273.359 107.196 273.211 107.058C273.062 106.921 272.883 106.823 272.688 106.771C272.297 106.673 271.892 106.64 271.491 106.675C271.832 106.57 271.781 106.035 271.52 105.791C271.259 105.547 270.885 105.445 270.639 105.186C270.393 104.927 270.413 104.374 270.768 104.331L270.724 104.205C270.541 104.137 270.345 104.108 270.15 104.122C269.955 104.136 269.765 104.192 269.593 104.285C269.422 104.379 269.272 104.508 269.155 104.665C269.037 104.821 268.955 105.001 268.913 105.192C268.848 105.597 268.969 106.045 268.766 106.401C268.507 106.855 267.879 106.906 267.359 106.856C266.848 106.725 266.306 106.799 265.849 107.062C265.707 107.181 265.605 107.34 265.558 107.519C265.511 107.699 265.521 107.888 265.586 108.061C265.651 108.234 265.769 108.383 265.923 108.486C266.076 108.589 266.258 108.642 266.444 108.637C266.101 108.639 265.761 108.684 265.429 108.771L265.748 108.894C265.819 108.916 265.885 108.953 265.94 109.002C265.968 109.027 265.987 109.06 265.994 109.097C266.002 109.133 265.998 109.171 265.983 109.205C265.932 109.297 265.801 109.294 265.696 109.279L265.003 109.174C265.04 109.187 265.074 109.207 265.102 109.235C265.13 109.262 265.152 109.295 265.166 109.332C265.18 109.369 265.185 109.408 265.182 109.447C265.178 109.486 265.166 109.524 265.146 109.558C265.126 109.592 265.099 109.621 265.066 109.643C265.033 109.665 264.996 109.679 264.958 109.685C264.919 109.69 264.879 109.687 264.842 109.676C264.804 109.664 264.77 109.644 264.741 109.617C264.812 109.701 264.869 109.795 264.91 109.896C264.93 109.947 264.938 110.003 264.932 110.057C264.927 110.112 264.908 110.164 264.878 110.21C264.809 110.273 264.723 110.313 264.63 110.324C264.537 110.335 264.444 110.317 264.362 110.273C264.305 110.251 264.248 110.226 264.191 110.203C264.192 110.223 264.194 110.243 264.196 110.263C264.215 110.395 264.261 110.521 264.332 110.634C264.402 110.747 264.495 110.844 264.605 110.919C264.291 110.956 264.001 111.108 263.793 111.347C263.618 111.565 263.517 111.835 263.508 112.115C263.498 112.395 263.58 112.671 263.74 112.901C263.39 112.746 263.007 112.682 262.626 112.716C262.436 112.739 262.262 112.831 262.136 112.974C262.011 113.118 261.942 113.302 261.943 113.493C262.006 113.976 262.605 114.153 263.088 114.213C266.893 114.682 270.74 114.681 274.545 114.212C275.062 114.177 275.568 114.048 276.038 113.832C276.273 113.721 276.475 113.552 276.627 113.342C276.779 113.132 276.875 112.887 276.907 112.63C276.897 112.322 276.796 112.024 276.616 111.773C276.437 111.522 276.188 111.33 275.899 111.221Z" fill="#D9D9D9"/>
<path d="M278.723 116.823C278.681 116.64 278.578 116.477 278.431 116.361C278.284 116.244 278.102 116.181 277.915 116.182C277.547 116.192 277.218 116.454 276.857 116.397C276.558 116.349 276.322 116.087 276.02 116.127C275.744 116.164 275.596 116.434 275.39 116.579H274.861C274.655 116.417 274.554 116.089 274.268 115.996C273.838 115.858 273.493 116.343 273.042 116.429C272.781 116.458 272.518 116.408 272.286 116.285C272.059 116.161 271.813 116.078 271.558 116.038C271.445 116.021 271.331 116.036 271.227 116.082C271.123 116.128 271.034 116.202 270.97 116.296C270.984 116.159 270.806 116.024 270.625 116.015C270.422 116.023 270.225 116.083 270.053 116.191C269.881 116.299 269.682 116.356 269.479 116.356C269.029 116.316 268.808 115.79 268.355 115.785C267.786 115.777 267.558 116.589 266.994 116.52C266.701 116.484 266.543 116.218 266.282 116.104C266.005 116.019 265.709 116.016 265.43 116.096L264.098 116.345C263.707 116.453 263.295 116.457 262.903 116.357C262.617 116.254 262.339 116.03 262.044 116.115C261.788 116.189 261.662 116.477 261.391 116.492C261.217 116.47 261.05 116.412 260.899 116.323C260.758 116.273 260.606 116.266 260.461 116.303C260.316 116.339 260.185 116.418 260.084 116.529C259.935 117.137 259.911 117.769 260.013 118.386C260.009 118.518 260.02 118.649 260.044 118.779L261.385 124.143C261.542 124.966 261.949 125.561 262.786 125.561H275.812C276.218 125.561 276.612 125.419 276.925 125.161C277.237 124.902 277.45 124.542 277.527 124.143L278.867 118.779C278.87 118.765 278.871 118.751 278.874 118.737C278.905 118.095 278.855 117.452 278.723 116.823Z" fill="#CCCCCC"/>
<path opacity="0.2" d="M262.797 116.419L263.058 119.805C263.144 120.934 263.016 122.047 263.103 123.175C263.152 123.811 263.416 124.463 263.465 125.098C263.47 125.173 263.588 125.174 263.582 125.098L263.322 121.712L263.061 118.326L262.914 116.419C262.909 116.344 262.791 116.343 262.797 116.419L262.797 116.419Z" fill="#232323"/>
<path opacity="0.2" d="M265.059 116.553L265.161 119.89L265.262 123.226L265.319 125.1C265.321 125.175 265.438 125.175 265.436 125.1L265.334 121.763L265.233 118.426L265.176 116.553C265.174 116.478 265.057 116.477 265.059 116.553Z" fill="#232323"/>
<path opacity="0.2" d="M267.251 116.753L267.22 119.978L267.189 123.183L267.172 125.001C267.172 125.016 267.179 125.03 267.19 125.041C267.201 125.051 267.215 125.057 267.23 125.057C267.246 125.057 267.26 125.051 267.271 125.041C267.282 125.03 267.288 125.016 267.289 125.001L267.32 121.776L267.35 118.571L267.368 116.753C267.367 116.738 267.361 116.723 267.35 116.713C267.339 116.702 267.324 116.696 267.309 116.696C267.294 116.696 267.279 116.702 267.269 116.713C267.258 116.723 267.251 116.738 267.251 116.753Z" fill="#232323"/>
<path opacity="0.2" d="M268.906 116.654L268.971 119.919L269.034 123.164L269.07 125.002C269.071 125.017 269.077 125.031 269.088 125.042C269.099 125.052 269.114 125.058 269.129 125.058C269.144 125.058 269.159 125.052 269.169 125.042C269.18 125.031 269.187 125.017 269.187 125.002L269.123 121.737L269.06 118.492L269.024 116.654C269.023 116.639 269.017 116.625 269.006 116.614C268.995 116.604 268.98 116.598 268.965 116.598C268.95 116.598 268.935 116.604 268.924 116.614C268.913 116.625 268.907 116.639 268.906 116.654Z" fill="#232323"/>
<path opacity="0.2" d="M271.319 116.52L271.393 119.872L271.466 123.224L271.507 125.1C271.507 125.115 271.514 125.129 271.525 125.14C271.535 125.151 271.55 125.156 271.565 125.156C271.58 125.156 271.595 125.151 271.606 125.14C271.617 125.129 271.623 125.115 271.624 125.1L271.551 121.748L271.477 118.396L271.436 116.52C271.436 116.505 271.429 116.491 271.418 116.48C271.408 116.47 271.393 116.464 271.378 116.464C271.363 116.464 271.348 116.47 271.337 116.48C271.326 116.491 271.32 116.505 271.319 116.52Z" fill="#232323"/>
<path opacity="0.2" d="M273.322 116.622L273.578 119.999L273.833 123.366L273.977 125.264C273.983 125.339 274.1 125.34 274.094 125.264L273.838 121.887L273.583 118.52L273.44 116.622C273.434 116.547 273.317 116.547 273.322 116.622Z" fill="#232323"/>
<path opacity="0.2" d="M275.548 117.016L275.702 120.105C275.753 121.135 275.492 122.165 275.544 123.195L275.63 124.931C275.634 125.006 275.751 125.006 275.747 124.931C275.696 123.901 275.957 122.871 275.905 121.841L275.751 118.751L275.665 117.016C275.661 116.94 275.544 116.94 275.548 117.016Z" fill="#232323"/>
<path d="M268.752 108.55C269 108.55 269.202 108.41 269.202 108.237C269.202 108.064 269 107.924 268.752 107.924C268.504 107.924 268.302 108.064 268.302 108.237C268.302 108.41 268.504 108.55 268.752 108.55Z" fill="#E6E6E6"/>
<path d="M271.606 109.254C271.854 109.254 272.056 109.114 272.056 108.941C272.056 108.768 271.854 108.628 271.606 108.628C271.358 108.628 271.156 108.768 271.156 108.941C271.156 109.114 271.358 109.254 271.606 109.254Z" fill="#FEBD59"/>
<path d="M267.618 110.779C267.867 110.779 268.068 110.639 268.068 110.466C268.068 110.293 267.867 110.153 267.618 110.153C267.37 110.153 267.169 110.293 267.169 110.466C267.169 110.639 267.37 110.779 267.618 110.779Z" fill="#FF6584"/>
<path d="M271.336 111.191C271.493 111.191 271.62 111.103 271.62 110.993C271.62 110.884 271.493 110.796 271.336 110.796C271.179 110.796 271.052 110.884 271.052 110.993C271.052 111.103 271.179 111.191 271.336 111.191Z" fill="#E6E6E6"/>
<path d="M273.14 111.636C273.297 111.636 273.424 111.547 273.424 111.438C273.424 111.329 273.297 111.241 273.14 111.241C272.983 111.241 272.856 111.329 272.856 111.438C272.856 111.547 272.983 111.636 273.14 111.636Z" fill="#FEBD59"/>
<path d="M270.62 112.6C270.777 112.6 270.904 112.511 270.904 112.402C270.904 112.293 270.777 112.205 270.62 112.205C270.463 112.205 270.335 112.293 270.335 112.402C270.335 112.511 270.463 112.6 270.62 112.6Z" fill="#FF6584"/>
<path d="M273.995 112.286C274.152 112.286 274.279 112.198 274.279 112.088C274.279 111.979 274.152 111.891 273.995 111.891C273.838 111.891 273.71 111.979 273.71 112.088C273.71 112.198 273.838 112.286 273.995 112.286Z" fill="#E6E6E6"/>
<path d="M275.798 112.731C275.955 112.731 276.082 112.643 276.082 112.533C276.082 112.424 275.955 112.336 275.798 112.336C275.641 112.336 275.514 112.424 275.514 112.533C275.514 112.643 275.641 112.731 275.798 112.731Z" fill="#FEBD59"/>
<path d="M273.278 113.695C273.435 113.695 273.562 113.606 273.562 113.497C273.562 113.388 273.435 113.299 273.278 113.299C273.121 113.299 272.994 113.388 272.994 113.497C272.994 113.606 273.121 113.695 273.278 113.695Z" fill="#FF6584"/>
<path d="M266.669 111.243C266.691 111.088 266.621 110.949 266.513 110.935C266.405 110.92 266.3 111.034 266.279 111.189C266.257 111.345 266.327 111.483 266.435 111.498C266.543 111.513 266.648 111.399 266.669 111.243Z" fill="#E6E6E6"/>
<path d="M265.983 112.97C266.004 112.814 265.934 112.676 265.826 112.661C265.718 112.646 265.613 112.76 265.592 112.916C265.57 113.071 265.64 113.209 265.748 113.224C265.856 113.239 265.961 113.125 265.983 112.97Z" fill="#FEBD59"/>
<path d="M265.372 110.341C265.393 110.185 265.323 110.047 265.215 110.032C265.107 110.017 265.003 110.131 264.981 110.287C264.96 110.442 265.03 110.581 265.138 110.595C265.246 110.61 265.351 110.496 265.372 110.341Z" fill="#FF6584"/>
<path d="M269.758 110.305C269.779 110.149 269.709 110.011 269.601 109.996C269.493 109.981 269.389 110.095 269.367 110.251C269.346 110.406 269.416 110.544 269.524 110.559C269.632 110.574 269.737 110.46 269.758 110.305Z" fill="#E6E6E6"/>
<path d="M269.071 112.031C269.093 111.876 269.022 111.738 268.915 111.723C268.807 111.708 268.702 111.822 268.68 111.977C268.659 112.133 268.729 112.271 268.837 112.286C268.945 112.301 269.05 112.187 269.071 112.031Z" fill="#FEBD59"/>
<path d="M268.461 109.402C268.482 109.247 268.412 109.109 268.304 109.094C268.196 109.079 268.091 109.193 268.07 109.348C268.048 109.504 268.118 109.642 268.226 109.657C268.334 109.672 268.439 109.558 268.461 109.402Z" fill="#FF6584"/>
<path d="M270.594 108.394C270.616 108.238 270.546 108.1 270.438 108.085C270.33 108.07 270.225 108.184 270.203 108.34C270.182 108.495 270.252 108.634 270.36 108.648C270.468 108.663 270.573 108.549 270.594 108.394Z" fill="#FEBD59"/>
<path d="M269.985 105.765C270.007 105.61 269.937 105.472 269.829 105.457C269.721 105.442 269.616 105.556 269.594 105.711C269.573 105.867 269.643 106.005 269.751 106.02C269.859 106.035 269.964 105.921 269.985 105.765Z" fill="#FF6584"/>
</g>
<defs>
<clipPath id="clip0_841_189">
<rect width="454" height="282" fill="white"/>
</clipPath>
</defs>
</svg>
