<svg width="143" height="143" viewBox="0 0 143 143" fill="none" xmlns="http://www.w3.org/2000/svg">
<g clip-path="url(#clip0_845_1213)">
<path d="M143 71.5C143.009 79.3184 141.733 87.0852 139.224 94.49C139.08 94.9131 138.933 95.3347 138.782 95.755C136.125 103.103 132.282 109.967 127.407 116.073C125.952 117.899 124.41 119.649 122.781 121.324C121.152 123.001 119.442 124.597 117.651 126.111C107.661 134.583 95.5255 140.132 82.5824 142.145H82.5803C80.9303 142.401 79.2641 142.601 77.5816 142.744C75.5784 142.913 73.5511 142.999 71.4999 143C61.9611 143.012 52.5167 141.11 43.7266 137.406C34.9364 133.701 26.9793 128.27 20.3267 121.434C19.8592 120.956 19.3987 120.47 18.9453 119.978C17.8157 118.753 16.7291 117.491 15.6855 116.19C15.0995 115.458 14.5277 114.714 13.9699 113.96C10.5343 109.319 7.67591 104.277 5.45762 98.945C4.51162 96.6743 3.68549 94.3554 2.98262 91.9981C2.93185 91.831 2.8832 91.6639 2.83454 91.4967C2.72878 91.1371 2.62654 90.7754 2.52782 90.4115C0.845056 84.2487 -0.00512508 77.8884 -6.91351e-05 71.5C-6.91351e-05 32.0121 32.012 0 71.4999 0C110.988 0 143 32.0121 143 71.5Z" fill="#F2F2F2"/>
<path d="M30.3236 42.7375C30.2129 43.4096 30.2509 44.0978 30.435 44.7536C30.619 45.4094 30.9446 46.0169 31.3888 46.5333C31.8331 47.0496 32.3851 47.4623 33.0061 47.7422C33.627 48.0222 34.3018 48.1626 34.9829 48.1535L46.3963 81.3635L53.6789 76.3585L39.6204 43.0968C39.5293 41.9536 39.0221 40.8835 38.1947 40.0894C37.3674 39.2952 36.2775 38.8321 35.1316 38.7878C33.9856 38.7435 32.8633 39.1211 31.9771 39.8491C31.091 40.577 30.5026 41.6047 30.3236 42.7375Z" fill="#C86D50"/>
<path d="M89.8944 53.9741C84.8259 59.7406 72.3282 69.9029 62.0327 76.9006C59.8073 78.4131 57.6834 79.7754 55.7606 80.9156C54.4617 81.6856 53.2538 82.352 52.1665 82.8956C51.4367 83.2591 50.6398 83.4681 49.8255 83.5093C49.0113 83.5505 48.1972 83.4232 47.4345 83.1353C46.6717 82.8473 45.9766 82.405 45.3928 81.8359C44.8089 81.2669 44.3488 80.5834 44.0413 79.8283L36.9125 62.5816L39.379 60.9464L45.4607 56.9123L46.8421 55.9985L52.5452 69.5814L58.5592 64.7541L62.2929 61.7566L79.3132 48.0975L80.7813 47.6617L84.2061 51.0041L86.6282 53.3691L88.9065 53.7646C89.2471 53.8239 89.5771 53.8937 89.8944 53.9741Z" fill="#FEBD59"/>
<path d="M135.368 101.361C135.721 101.81 136.087 102.256 136.453 102.704C135.192 105.293 133.775 107.802 132.209 110.218C132.093 110.136 131.977 110.053 131.86 109.971C131.842 109.961 131.824 109.949 131.808 109.937C131.374 109.628 130.938 109.323 130.504 109.015V109.013C130.147 107.795 129.947 106.537 129.91 105.268C130.134 105.217 130.336 105.098 130.49 104.928C130.644 104.758 130.742 104.544 130.77 104.316C130.798 104.089 130.756 103.858 130.649 103.655C130.541 103.452 130.374 103.287 130.17 103.183C130.113 103.083 130.073 103.011 130.016 102.91C130.018 102.884 130.022 102.857 130.024 102.831C130.356 100.189 133.724 99.267 135.368 101.361Z" fill="white"/>
<path d="M139.165 92.3074C139.419 93.0055 139.65 93.7113 139.859 94.4249C139.715 94.848 139.567 95.2696 139.417 95.6899C139.359 95.4678 139.3 95.2457 139.239 95.0235C138.895 93.7885 138.482 92.5738 138.001 91.3851C137.608 90.4099 137.172 89.4551 136.694 88.5208C134.094 83.4452 130.327 79.059 125.702 75.7228C123.791 75.2807 122.061 74.2633 120.746 72.8077C120.272 72.2847 119.875 71.6963 119.568 71.0604C119.762 71.0329 119.957 70.9949 120.147 70.9547C120.207 70.942 120.268 70.9272 120.327 70.9145L120.351 70.9102C120.559 70.862 120.748 70.7546 120.897 70.6011C121.046 70.4475 121.147 70.2543 121.188 70.0447C121.229 69.8351 121.209 69.618 121.13 69.4195C121.051 69.2211 120.916 69.0497 120.742 68.926C120.634 68.8477 120.524 68.7716 120.416 68.6955C120.251 68.5749 120.084 68.4606 119.917 68.3422C119.899 68.3312 119.882 68.3192 119.866 68.3062C119.676 68.1708 119.485 68.0397 119.297 67.9022C119.443 67.4308 119.696 66.9994 120.035 66.6414C121.218 65.4208 123.329 65.4483 124.708 66.4426C126.09 67.4368 126.783 69.1778 126.872 70.8743C126.951 72.3276 126.637 73.766 126.225 75.1685C126.329 75.2447 126.437 75.3166 126.54 75.3949C128.445 76.8063 130.206 78.4012 131.799 80.1566C130.879 77.9735 130.545 75.1262 130.784 73.1653C131.057 70.9314 132.142 68.8097 133.03 66.6964C134.094 64.158 137.724 64.1241 138.748 66.6795C138.759 66.7049 138.769 66.7281 138.778 66.7535C138.606 66.9249 138.441 67.1026 138.283 67.2866C138.083 67.5185 137.959 67.8051 137.925 68.109C137.892 68.4129 137.951 68.7198 138.095 68.9896C138.238 69.2593 138.46 69.4794 138.731 69.6209C139.002 69.7625 139.31 69.8189 139.613 69.7828L139.645 69.7785C139.777 70.5327 139.852 71.2956 139.869 72.061C139.895 74.2024 139.479 76.3261 138.646 78.2991C137.813 80.272 136.582 82.0516 135.029 83.5264C134.928 83.6216 134.828 83.7147 134.725 83.8057C135.705 85.1992 136.585 86.6603 137.358 88.1782C138.045 89.516 138.648 90.8951 139.165 92.3074Z" fill="white"/>
<path d="M98.4046 72.4625L97.7657 116.338L46.1588 114.857L54.4003 96.6646C54.3411 96.0808 58.0177 91.9833 57.9965 91.3762C57.933 89.5971 59.2615 87.9492 59.4773 86.0877C59.9173 82.2483 57.3979 67.7494 58.5592 64.754C59.0539 63.4165 59.6878 62.1346 60.4504 60.9294C61.1104 59.931 61.7873 59.2583 62.4346 59.015L64.3427 54.5685L66.035 52.03L79.3132 48.0975L80.7813 47.6617L84.2061 51.0041L86.6282 53.3691L88.9065 53.7646C89.2471 53.8239 89.5771 53.8937 89.8944 53.9741C91.4226 54.3265 92.847 55.0321 94.0532 56.0344C98.0302 59.4127 98.4934 65.7673 98.4046 72.4625Z" fill="#FEBD59"/>
<path d="M128.042 116.008C126.587 117.834 125.045 119.584 123.416 121.259L117.835 121.263L87.8244 121.297L82.4217 121.303L78.8298 121.307L73.4864 121.311L69.3762 121.316L61.784 121.324L57.3058 121.33L47.8754 121.339L43.3739 121.345L30.8994 121.358L23.064 121.366L20.9613 121.369C20.4938 120.89 20.0334 120.405 19.58 119.913C18.4504 118.688 17.3638 117.425 16.3202 116.125L20.6737 116.12L23.6394 116.118L30.506 116.11L43.7567 116.097L48.235 116.093L50.0458 116.091H50.0521L51.4737 116.089L52.1104 116.086L53.7414 116.084H54.431L59.2667 116.08L69.6977 116.067L74.2881 116.063L78.6839 116.059L82.8046 116.055L88.7171 116.048L120.296 116.017L128.042 116.008Z" fill="#D9D9D9"/>
<path d="M56.6427 50.1287L56.6313 50.1298C56.021 50.1866 55.4132 49.9986 54.9415 49.6073C54.4698 49.2159 54.173 48.6532 54.1162 48.0429L52.9132 35.2027C52.6954 32.9024 52.9424 30.5818 53.6395 28.3789C55.0057 24.0795 57.9784 20.4732 61.9381 18.3115C63.9826 17.1983 66.2314 16.5106 68.5489 16.2898C78.0299 15.3865 81.4947 17.3611 87.3514 31.8212C93.208 46.2813 88.5562 44.681 88.5562 44.681C88.5855 44.9905 88.5522 45.3027 88.4583 45.599C88.274 46.1771 87.8734 46.6616 87.3403 46.9514C87.0667 47.0997 86.7661 47.1916 86.4563 47.2214C75.2477 50.0705 63.9377 53.0696 56.6408 50.1289L56.6427 50.1287Z" fill="#232323"/>
<path d="M77.505 28.4564C78.912 30.5382 79.6706 32.9902 79.6848 35.5028C79.6991 38.0154 78.9684 40.4759 77.5851 42.5735C76.2018 44.6711 74.228 46.3118 71.9128 47.2882C69.5976 48.2647 67.045 48.5331 64.5774 48.0597C62.9439 47.7517 61.3877 47.1225 59.9991 46.2087C58.6105 45.2949 57.417 44.1147 56.4878 42.7363C55.0838 40.6552 54.3273 38.205 54.3139 35.6946C54.3004 33.1842 55.0305 30.7261 56.4121 28.63C57.7938 26.534 59.7651 24.894 62.0775 23.9167C64.3899 22.9394 66.9399 22.6687 69.4059 23.1387C71.0407 23.4449 72.5985 24.0727 73.9888 24.9856C75.3791 25.8986 76.5743 27.0784 77.5051 28.4569L77.505 28.4564Z" fill="#C86D50"/>
<path d="M48.9386 36.6292C48.7665 34.8099 48.9618 32.9746 49.5131 31.2324C49.6409 26.9705 50.8774 23.1102 56.0756 23.2723C57.6824 22.3982 59.4486 21.8562 61.2692 21.6786L63.8379 21.4249C63.8668 21.4221 63.8956 21.4193 63.9245 21.4166C65.7042 21.251 67.4991 21.4375 69.2066 21.9655C70.9142 22.4935 72.5011 23.3527 73.8766 24.494C75.2522 25.6353 76.3895 27.0364 77.2235 28.6172C78.0576 30.198 78.5722 31.9277 78.7378 33.7074L78.7619 33.9645L73.3272 34.4958L70.9882 29.4905L71.1036 34.7143L68.2967 34.9898L67.1172 32.4644L67.1748 35.0983C63.0072 38.7688 56.6875 38.9612 48.9651 36.8866L48.9386 36.6292Z" fill="#232323"/>
<path d="M66.3226 48.8136C66.2764 49.2367 66.3498 49.6642 66.5345 50.0477C66.6275 50.244 66.7477 50.4264 66.8914 50.5894C67.0143 50.7283 67.1532 50.8521 67.3052 50.9584C67.7555 51.2718 68.3026 51.4146 68.8486 51.3611C68.8826 51.3575 68.9166 51.3534 68.9504 51.3486C68.9843 51.3438 69.0182 51.3383 69.0519 51.3319C69.086 51.3258 69.1198 51.3188 69.1534 51.3108C69.187 51.3029 69.2207 51.2943 69.2545 51.285L71.1512 50.7535L73.277 44.8264L73.7643 50.0274L82.3893 47.626L80.3215 25.5552L65.6208 27.0037L66.0239 27.3919C67.3635 28.6958 68.3174 30.344 68.7806 32.155C69.2404 33.9903 69.3823 35.8908 69.2002 37.7739C69.0301 39.6781 68.6775 41.5616 68.1474 43.3984C67.6859 45.0249 67.1311 46.6234 66.4857 48.1861C66.4023 48.3866 66.3474 48.5978 66.3226 48.8136Z" fill="#232323"/>
<path d="M68.2829 118.4C68.0301 118.4 67.7806 118.343 67.5523 118.235L26.827 119.274C26.5145 119.126 26.2542 118.886 26.0806 118.587C25.9069 118.288 25.8281 117.944 25.8544 117.599C25.8808 117.254 26.0111 116.925 26.2282 116.656C26.4453 116.387 26.7389 116.19 27.0703 116.091L53.7139 108.147C53.9898 108.065 54.282 108.054 54.5634 108.114L95.7766 113.138C96.1413 113.217 96.4702 113.413 96.7131 113.696C96.9559 113.979 97.0994 114.334 97.1216 114.707C97.1438 115.079 97.0435 115.448 96.8361 115.759C96.6286 116.069 96.3253 116.302 95.9726 116.424L68.8409 118.306C68.6614 118.368 68.4728 118.4 68.2829 118.4Z" fill="#3F4D90"/>
<path d="M69.7807 115.565C69.5968 115.565 69.416 115.518 69.2554 115.428L36.1805 116.973C35.9927 116.868 35.841 116.709 35.745 116.516C35.6491 116.323 35.6135 116.106 35.6428 115.893C35.6721 115.679 35.765 115.48 35.9093 115.32C36.0536 115.16 36.2427 115.047 36.452 114.996L48.4258 112.09C48.6127 112.045 48.8083 112.051 48.9922 112.107L79.7401 112.07C79.959 112.137 80.1507 112.272 80.2871 112.456C80.4236 112.64 80.4977 112.863 80.4985 113.091C80.4993 113.32 80.4268 113.544 80.2916 113.728C80.1564 113.913 79.9657 114.05 79.7473 114.118L70.1006 115.516C69.9971 115.549 69.8892 115.565 69.7807 115.565Z" fill="#232323"/>
<path d="M66.2993 113.802C66.8718 114.171 67.5182 114.41 68.1931 114.503C68.868 114.595 69.5549 114.538 70.2054 114.336C70.8559 114.134 71.4543 113.792 71.9583 113.334C72.4623 112.875 72.8596 112.312 73.1225 111.684L108.131 114.434L106.439 105.761L70.3297 105.417C69.2448 105.045 68.0612 105.085 67.0034 105.527C65.9455 105.97 65.0868 106.786 64.59 107.819C64.0932 108.853 63.9928 110.033 64.3078 111.135C64.6228 112.238 65.3314 113.187 66.2993 113.802Z" fill="#C86D50"/>
<path d="M86.9773 57.3184C86.9773 57.3184 92.2658 53.0877 98.6119 60.7031C102.892 65.8388 111.148 96.8855 111.832 109.751C111.875 110.565 111.75 111.379 111.464 112.143C111.178 112.906 110.737 113.602 110.169 114.187C109.602 114.772 108.919 115.234 108.165 115.543C107.41 115.852 106.6 116.002 105.785 115.983L87.1254 115.658L85.0388 103.928L99.7711 104.103L86.9773 57.3184Z" fill="#FEBD59"/>
<path d="M66.0178 118.405C65.3776 118.404 64.744 118.276 64.1541 118.027L26.4067 118.889C25.4105 118.473 24.5835 117.734 24.0595 116.79C23.5355 115.847 23.3451 114.754 23.519 113.689L22.1164 80.5381C22.3024 79.354 22.9256 78.2827 23.863 77.5357C24.8004 76.7887 25.9838 76.4203 27.1796 76.5033L62.2237 77.9568C62.8964 78.0009 63.5523 78.1859 64.1489 78.4998C64.7455 78.8137 65.2694 79.2495 65.6867 79.779C66.104 80.3084 66.4054 80.9196 66.5713 81.573C66.7372 82.2264 66.7638 82.9074 66.6496 83.5718L70.7555 114.407C70.5624 115.525 69.9814 116.538 69.1149 117.269C68.2483 118 67.1516 118.403 66.0178 118.405Z" fill="#3F4D90"/>
<path d="M37.3546 19.709L21.6013 19.6646C21.179 19.6641 20.7738 19.831 20.4744 20.1288C20.175 20.4266 20.0059 20.8309 20.0042 21.2532L19.9471 42.113C19.9462 42.5348 20.1128 42.9398 20.4103 43.2388C20.7078 43.5379 21.1118 43.7067 21.5336 43.708L30.2723 43.7334L37.289 43.7524C37.7112 43.7532 38.1163 43.5863 38.4155 43.2884C38.7146 42.9905 38.8831 42.5859 38.884 42.1638L38.8882 40.9305L38.9432 21.3061C38.9441 20.8837 38.7773 20.4783 38.4794 20.1788C38.1815 19.8793 37.777 19.7104 37.3546 19.709Z" fill="#D9D9D9"/>
<path d="M36.244 20.9549L22.7056 20.9169C22.3102 20.9164 21.9308 21.0726 21.6505 21.3514C21.3701 21.6301 21.2117 22.0087 21.21 22.404L21.1719 35.8155C21.1692 37.5768 21.8653 39.2672 23.1073 40.516C24.3494 41.7648 26.036 42.47 27.7973 42.4769L30.3696 42.4832L36.1848 42.5001C36.5802 42.501 36.9598 42.3449 37.2403 42.066C37.5207 41.7872 37.679 41.4085 37.6804 41.013L37.6846 39.6634L37.7311 22.4505C37.732 22.0551 37.5758 21.6755 37.297 21.395C37.0182 21.1146 36.6395 20.9563 36.244 20.9549Z" fill="white"/>
<path d="M34.7231 30.1189H24.1673C24.0841 30.1189 24.0017 30.1353 23.9248 30.1671C23.848 30.199 23.7781 30.2456 23.7193 30.3045C23.6605 30.3633 23.6138 30.4331 23.5819 30.51C23.5501 30.5869 23.5337 30.6693 23.5337 30.7525C23.5337 30.8357 23.5501 30.918 23.5819 30.9949C23.6138 31.0718 23.6605 31.1416 23.7193 31.2004C23.7781 31.2593 23.848 31.3059 23.9248 31.3378C24.0017 31.3696 24.0841 31.386 24.1673 31.386H34.7231C34.8911 31.386 35.0522 31.3193 35.1711 31.2004C35.2899 31.0816 35.3566 30.9205 35.3566 30.7525C35.3566 30.5844 35.2899 30.4233 35.1711 30.3045C35.0522 30.1856 34.8911 30.1189 34.7231 30.1189Z" fill="#FEBD59"/>
<path d="M26.4879 26.6454H24.1673C23.9992 26.6454 23.8381 26.7121 23.7193 26.8309C23.6005 26.9498 23.5337 27.1109 23.5337 27.2789C23.5337 27.447 23.6005 27.6081 23.7193 27.7269C23.8381 27.8457 23.9992 27.9125 24.1673 27.9125H26.4879C26.6559 27.9125 26.817 27.8457 26.9359 27.7269C27.0547 27.6081 27.1214 27.447 27.1214 27.2789C27.1214 27.1109 27.0547 26.9498 26.9359 26.8309C26.817 26.7121 26.6559 26.6454 26.4879 26.6454Z" fill="#FEBD59"/>
<path d="M34.7231 35.6886H24.1673C23.9992 35.6886 23.8381 35.7554 23.7193 35.8742C23.6005 35.993 23.5337 36.1541 23.5337 36.3222C23.5337 36.4902 23.6005 36.6513 23.7193 36.7702C23.8381 36.889 23.9992 36.9557 24.1673 36.9557H34.7231C34.8911 36.9557 35.0522 36.889 35.1711 36.7702C35.2899 36.6513 35.3566 36.4902 35.3566 36.3222C35.3566 36.1541 35.2899 35.993 35.1711 35.8742C35.0522 35.7554 34.8911 35.6886 34.7231 35.6886Z" fill="#FEBD59"/>
<path d="M34.7231 32.9048H24.1673C23.9995 32.9048 23.8387 32.9714 23.72 33.09C23.6014 33.2087 23.5348 33.3695 23.5348 33.5373C23.5348 33.705 23.6014 33.8659 23.72 33.9845C23.8387 34.1031 23.9995 34.1698 24.1673 34.1698H34.7231C34.8908 34.1698 35.0517 34.1031 35.1703 33.9845C35.2889 33.8659 35.3555 33.705 35.3555 33.5373C35.3555 33.3695 35.2889 33.2087 35.1703 33.09C35.0517 32.9714 34.8908 32.9048 34.7231 32.9048Z" fill="#FEBD59"/>
<path d="M32.6719 28.8857C31.9307 28.8857 31.2061 28.6659 30.5898 28.2541C29.9735 27.8423 29.4931 27.257 29.2095 26.5721C28.9258 25.8873 28.8516 25.1338 28.9962 24.4068C29.1408 23.6798 29.4977 23.0121 30.0219 22.4879C30.546 21.9638 31.2138 21.6069 31.9408 21.4623C32.6677 21.3177 33.4213 21.3919 34.1061 21.6755C34.7909 21.9592 35.3762 22.4395 35.788 23.0559C36.1998 23.6722 36.4196 24.3967 36.4196 25.138C36.4185 26.1316 36.0233 27.0842 35.3207 27.7867C34.6181 28.4893 33.6655 28.8845 32.6719 28.8857ZM32.6719 21.6507C31.9822 21.6507 31.308 21.8552 30.7345 22.2384C30.161 22.6216 29.714 23.1662 29.4501 23.8034C29.1861 24.4406 29.1171 25.1418 29.2516 25.8183C29.3862 26.4948 29.7183 27.1161 30.206 27.6038C30.6937 28.0915 31.3151 28.4237 31.9915 28.5582C32.668 28.6928 33.3692 28.6237 34.0064 28.3598C34.6436 28.0958 35.1882 27.6489 35.5714 27.0754C35.9546 26.5019 36.1591 25.8277 36.1591 25.138C36.1581 24.2134 35.7904 23.327 35.1366 22.6733C34.4828 22.0195 33.5965 21.6518 32.6719 21.6507Z" fill="#FEBD59"/>
<path d="M34.2458 26.5895C33.987 25.253 33.4478 23.9866 32.6639 22.8736C32.6462 22.8448 32.6214 22.8209 32.5919 22.8044C32.5624 22.7879 32.5291 22.7792 32.4953 22.7792C32.4614 22.7792 32.4281 22.7879 32.3986 22.8044C32.3691 22.8209 32.3443 22.8448 32.3266 22.8736C31.6439 24.0678 31.2075 25.3866 31.0432 26.7523C31.0129 27.0013 31.4038 26.9991 31.4339 26.7523C31.4888 26.3097 31.5743 25.8715 31.69 25.4408C31.7049 25.4378 31.7196 25.4334 31.7336 25.4274C32.2531 25.1666 32.8399 25.0711 33.4153 25.1536C33.4203 25.1543 33.4251 25.1532 33.4301 25.1537C33.6201 25.6535 33.767 26.1686 33.8691 26.6934C33.9168 26.94 34.2934 26.8356 34.2458 26.5895ZM31.8306 24.9617C32.0099 24.4054 32.2382 23.8661 32.5127 23.3502C32.8034 23.7942 33.0557 24.2621 33.2671 24.7488C32.7784 24.7121 32.2876 24.7848 31.8306 24.9617Z" fill="#FEBD59"/>
</g>
<defs>
<clipPath id="clip0_845_1213">
<rect width="143" height="143" fill="white"/>
</clipPath>
</defs>
</svg>
