<svg width="32" height="32" viewBox="0 0 32 32" fill="none" xmlns="http://www.w3.org/2000/svg">
<path d="M30.139 31.8933C31.1078 31.8933 31.8933 31.1077 31.8933 30.139V1.86107C31.8933 0.891972 31.1078 0.106642 30.139 0.106642H1.861C0.891893 0.106642 0.106674 0.891972 0.106674 1.86107V30.139C0.106674 31.1077 0.891893 31.8933 1.861 31.8933H30.139Z" fill="#3F4D90"/>
<path d="M22.0389 31.8933V19.5839H26.1708L26.7894 14.7867H22.0389V11.7238C22.0389 10.3349 22.4245 9.38843 24.4163 9.38843L26.9567 9.38724V5.09661C26.5172 5.03825 25.0093 4.9076 23.255 4.9076C19.5924 4.9076 17.085 7.14319 17.085 11.2489V14.7867H12.9426V19.5839H17.085V31.8933H22.0389Z" fill="white"/>
</svg>
