<svg width="32" height="32" viewBox="0 0 32 32" fill="none" xmlns="http://www.w3.org/2000/svg">
<path d="M16.0078 0.242432C9.42808 0.242432 7.50378 0.24922 7.12973 0.28025C5.77946 0.392492 4.93925 0.605098 4.02388 1.06086C3.31845 1.41116 2.7621 1.81722 2.21303 2.38643C1.21306 3.42449 0.607014 4.70158 0.387627 6.21964C0.280963 6.95661 0.249934 7.10692 0.243631 10.8713C0.241207 12.1261 0.243631 13.7775 0.243631 15.9925C0.243631 22.567 0.250904 24.4895 0.282418 24.8626C0.391505 26.1765 0.59756 27.0032 1.03391 27.9076C1.86782 29.6388 3.4605 30.9379 5.33681 31.4228C5.98649 31.5898 6.70404 31.6822 7.62523 31.7258C8.01552 31.7428 11.9936 31.7547 15.9741 31.7547C19.9543 31.7547 23.9348 31.7498 24.3156 31.7304C25.3823 31.6803 26.0016 31.5971 26.6865 31.4204C28.5749 30.9331 30.1385 29.6529 30.9894 27.8979C31.4172 27.0155 31.6342 26.1571 31.7324 24.912C31.7537 24.6407 31.7627 20.3115 31.7627 15.9884C31.7627 11.6645 31.7527 7.34352 31.7314 7.07201C31.632 5.80655 31.4151 4.95564 30.9734 4.05625C30.6112 3.32001 30.2088 2.77019 29.6246 2.20801C28.5819 1.21213 27.3071 0.606068 25.7873 0.386916C25.0511 0.280492 24.9045 0.248977 21.1371 0.242432H16.0078Z" fill="#3F4D90"/>
<path d="M16.0078 0.242432C9.42808 0.242432 7.50378 0.24922 7.12973 0.28025C5.77946 0.392492 4.93925 0.605098 4.02388 1.06086C3.31845 1.41116 2.7621 1.81722 2.21303 2.38643C1.21306 3.42449 0.607014 4.70158 0.387627 6.21964C0.280963 6.95661 0.249934 7.10692 0.243631 10.8713C0.241207 12.1261 0.243631 13.7775 0.243631 15.9925C0.243631 22.567 0.250904 24.4895 0.282418 24.8626C0.391505 26.1765 0.59756 27.0032 1.03391 27.9076C1.86782 29.6388 3.4605 30.9379 5.33681 31.4228C5.98649 31.5898 6.70404 31.6822 7.62523 31.7258C8.01552 31.7428 11.9936 31.7547 15.9741 31.7547C19.9543 31.7547 23.9348 31.7498 24.3156 31.7304C25.3823 31.6803 26.0016 31.5971 26.6865 31.4204C28.5749 30.9331 30.1385 29.6529 30.9894 27.8979C31.4172 27.0155 31.6342 26.1571 31.7324 24.912C31.7537 24.6407 31.7627 20.3115 31.7627 15.9884C31.7627 11.6645 31.7527 7.34352 31.7314 7.07201C31.632 5.80655 31.4151 4.95564 30.9734 4.05625C30.6112 3.32001 30.2088 2.77019 29.6246 2.20801C28.5819 1.21213 27.3071 0.606068 25.7873 0.386916C25.0511 0.280492 24.9045 0.248977 21.1371 0.242432H16.0078Z" fill="#3F4D90"/>
<path d="M16.0005 4.36365C12.8403 4.36365 12.4437 4.37747 11.2026 4.43395C9.96382 4.49068 9.11827 4.6868 8.37841 4.97456C7.6131 5.27177 6.96391 5.66934 6.31714 6.31637C5.66989 6.96316 5.27232 7.61237 4.97415 8.37747C4.68567 9.11759 4.48932 9.96341 4.43356 11.2017C4.37805 12.4429 4.3635 12.8398 4.3635 16C4.3635 19.1603 4.37756 19.5556 4.4338 20.7969C4.49077 22.0354 4.68689 22.8812 4.97439 23.6211C5.27184 24.3862 5.6694 25.0354 6.31641 25.6822C6.96294 26.3295 7.61213 26.728 8.37696 27.0255C9.1173 27.3132 9.96309 27.5093 11.2016 27.5658C12.4428 27.6223 12.8391 27.6361 15.999 27.6361C19.1594 27.6361 19.5548 27.6223 20.796 27.5658C22.0347 27.5093 22.8815 27.313 23.6213 27.0255C24.3864 26.728 25.0346 26.3295 25.6814 25.6822C26.3287 25.0354 26.7262 24.3862 27.0241 23.6211C27.3104 22.881 27.5066 22.0354 27.5647 20.7971C27.6205 19.5559 27.635 19.1603 27.635 16C27.635 12.8398 27.6205 12.4432 27.5647 11.202C27.5066 9.96316 27.3102 9.11759 27.0241 8.37771C26.7262 7.61237 26.3287 6.96316 25.6814 6.31637C25.0342 5.6691 24.3869 5.27153 23.6209 4.97456C22.8788 4.6868 22.0328 4.49068 20.7943 4.43395C19.5531 4.37747 19.158 4.36365 15.9966 4.36365H16.0005ZM14.9566 6.46062C15.2664 6.46013 15.6121 6.46062 16.0005 6.46062C19.1073 6.46062 19.4755 6.47177 20.7024 6.52753C21.8369 6.57941 22.4527 6.76898 22.8628 6.92825C23.4056 7.13916 23.7927 7.39128 24.2 7.79856C24.6073 8.20583 24.8594 8.59371 25.0708 9.13674C25.23 9.54644 25.4196 10.1622 25.4715 11.2967C25.527 12.5234 25.5393 12.8919 25.5393 15.9973C25.5393 19.1028 25.527 19.4713 25.4715 20.698C25.4196 21.8325 25.23 22.4485 25.0708 22.858C24.8599 23.401 24.6073 23.7876 24.2 24.1947C23.7927 24.602 23.4061 24.8543 22.8628 25.065C22.4531 25.225 21.8369 25.4141 20.7024 25.466C19.4755 25.5217 19.1073 25.5338 16.0005 25.5338C12.8934 25.5338 12.5252 25.5217 11.2986 25.466C10.1641 25.4136 9.54832 25.224 9.1379 25.065C8.59489 24.8538 8.20702 24.602 7.79976 24.1947C7.3925 23.7872 7.14039 23.4003 6.929 22.857C6.76973 22.4475 6.57992 21.8315 6.52829 20.697C6.47253 19.4701 6.46138 19.1018 6.46138 15.9944C6.46138 12.887 6.47253 12.5205 6.52829 11.2938C6.58016 10.1593 6.76973 9.54353 6.929 9.13334C7.1399 8.59031 7.3925 8.20244 7.79976 7.79516C8.20702 7.38789 8.59489 7.13577 9.1379 6.92437C9.54807 6.76437 10.1641 6.57528 11.2986 6.52316C12.372 6.47468 12.788 6.46013 14.9566 6.45771V6.46062ZM22.2117 8.39274C21.4406 8.39274 20.8154 9.01747 20.8154 9.78862C20.8154 10.5595 21.4406 11.185 22.2117 11.185C22.9828 11.185 23.6083 10.5595 23.6083 9.78862C23.6083 9.01771 22.9828 8.39225 22.2117 8.39225V8.39274ZM16.0005 10.0243C12.7005 10.0243 10.0249 12.6999 10.0249 16C10.0249 19.3001 12.7005 21.9746 16.0005 21.9746C19.3005 21.9746 21.9751 19.3001 21.9751 16C21.9751 12.6999 19.3003 10.0243 16.0005 10.0243ZM16.0005 12.1212C18.1425 12.1212 19.8792 13.8577 19.8792 16C19.8792 18.1421 18.1425 19.8788 16.0005 19.8788C13.8582 19.8788 12.1218 18.1421 12.1218 16C12.1218 13.8577 13.8582 12.1212 16.0005 12.1212Z" fill="white"/>
</svg>
