<svg width="139" height="157" viewBox="0 0 139 157" fill="none" xmlns="http://www.w3.org/2000/svg">
<g clip-path="url(#clip0_844_847)">
<path d="M89.3638 116.238C89.6757 116.404 90.0314 116.47 90.3826 116.428C90.7338 116.386 91.0635 116.238 91.3271 116.003C91.5907 115.768 91.7754 115.459 91.8562 115.116C91.937 114.773 91.91 114.414 91.7789 114.087C91.814 113.913 91.8392 113.788 91.8744 113.614C92.5492 112.988 93.3968 112.576 94.3085 112.431C95.2202 112.287 96.1544 112.417 96.9915 112.804C97.8285 113.192 98.5302 113.819 99.0066 114.606C99.483 115.393 99.7124 116.304 99.6654 117.221C99.4518 122.396 99.7086 127.98 96.2527 132.151C112.026 119.324 119.217 97.4718 114.401 77.8178C112.037 74.5401 110.935 70.1858 111.994 66.24C113.325 67.5274 115.917 67.1815 115.521 64.9528C115.309 64.072 115.089 63.1938 114.876 62.313C123.961 58.785 126.333 72.2284 115.571 77.702C116.444 81.4385 116.923 85.2557 116.998 89.0912C118.213 85.6327 120.235 82.5107 122.899 79.9819C125.478 77.671 128.888 76.3121 132.061 74.7616C135.921 72.8699 140.206 76.6201 138.686 80.6236C136.116 80.2964 134.297 83.3534 136.63 84.9962C132.534 91.8423 124.68 96.1937 116.7 96.2628C115.893 104.075 113.422 111.625 109.453 118.412C114.55 110.698 124.415 112.919 132.211 112.59C132.729 112.525 133.254 112.612 133.723 112.839C134.191 113.066 134.584 113.423 134.852 113.869C135.12 114.314 135.252 114.827 135.232 115.345C135.211 115.864 135.04 116.365 134.739 116.789C133.713 116.729 132.684 116.77 131.667 116.913C131.188 116.983 130.743 117.2 130.393 117.532C130.043 117.864 129.804 118.295 129.71 118.768C129.616 119.24 129.671 119.729 129.868 120.169C130.064 120.609 130.393 120.978 130.808 121.225C123.969 127.464 113.372 128.806 105.054 124.824C102.595 127.907 99.8211 130.727 96.7762 133.239L84.4109 127.372C84.4321 127.215 84.4598 127.055 84.4854 126.899C85.5957 127.514 86.7774 127.991 88.0041 128.319C86.685 123.315 85.215 120.383 89.3633 116.238H89.3638Z" fill="#F2F2F2"/>
<path d="M67.5141 104.399C67.2881 104.67 66.9839 104.865 66.6427 104.958C66.3016 105.051 65.94 105.037 65.6069 104.919C65.2738 104.8 64.9853 104.583 64.7806 104.296C64.5759 104.009 64.4647 103.666 64.4623 103.314C64.3638 103.166 64.2931 103.06 64.1946 102.912C63.332 102.585 62.3909 102.521 61.4918 102.73C60.5927 102.938 59.7767 103.409 59.1484 104.082C58.5201 104.755 58.108 105.6 57.9651 106.508C57.8222 107.415 57.9548 108.345 58.3461 109.177C60.5052 113.889 62.3837 119.157 67.1654 121.723C47.6958 115.764 32.753 98.2262 29.7649 78.2158C30.7115 74.2929 30.0823 69.8463 27.6051 66.5899C26.8613 68.2815 24.3289 68.9346 23.8511 66.7218C23.7141 65.8262 23.585 64.9303 23.448 64.0348C13.6972 64.1777 16.5958 77.5186 28.6367 78.548C29.2444 82.3363 30.2484 86.0509 31.6322 89.6314C29.1963 86.8845 26.1399 84.7523 22.7145 83.4103C19.4501 82.2382 15.7768 82.2599 12.2509 82.0149C7.95863 81.7123 5.41201 86.7938 8.3371 89.931C10.5931 88.6632 13.4359 90.8117 11.8987 93.2086C18.2869 98.0114 27.2098 99.093 34.6262 96.1615C38.3343 103.093 43.4844 109.159 49.7332 113.954C42.0883 108.723 33.7938 114.483 26.4489 117.106C25.9453 117.24 25.4917 117.517 25.1436 117.903C24.7954 118.289 24.5677 118.768 24.4883 119.281C24.4089 119.794 24.4811 120.318 24.6962 120.791C24.9113 121.264 25.26 121.664 25.6997 121.943C26.6269 121.502 27.5957 121.154 28.5919 120.904C29.0618 120.79 29.5557 120.823 30.006 120.999C30.4562 121.175 30.8407 121.486 31.1067 121.888C31.3728 122.29 31.5074 122.764 31.4921 123.245C31.4768 123.726 31.3123 124.191 31.0212 124.576C39.72 127.787 50.0429 125.051 56.2367 118.241C59.6825 120.173 63.3207 121.743 67.0926 122.926L76.3212 112.852C76.2418 112.714 76.1554 112.576 76.0727 112.441C75.2774 113.427 74.3638 114.312 73.3523 115.077C72.6771 109.947 72.9274 106.681 67.5145 104.399L67.5141 104.399Z" fill="#F2F2F2"/>
<path d="M69.8892 61.8279C70.2411 61.7926 70.5736 61.6504 70.8416 61.4206C71.1096 61.1909 71.3001 60.8847 71.3875 60.5436C71.4748 60.2025 71.4546 59.8429 71.3297 59.5136C71.2048 59.1842 70.9812 58.9011 70.6892 58.7024C70.6209 58.5385 70.5719 58.4209 70.5036 58.2569C70.7126 57.3621 71.1854 56.5497 71.8613 55.924C72.5373 55.2982 73.3856 54.8877 74.2976 54.7449C75.2095 54.6021 76.1435 54.7336 76.9798 55.1225C77.8162 55.5115 78.5168 56.1401 78.9918 56.9279C81.7135 61.3421 85.0548 65.8349 84.5231 71.2156C90.4306 51.8149 84.1587 29.6839 69.1493 16.0411C65.351 14.6317 61.9963 11.6288 60.6656 7.765C62.491 8.09572 64.4497 6.36989 62.8721 4.73958C62.2022 4.12633 61.5276 3.51939 60.8578 2.9061C66.4228 -5.06363 75.9232 4.78024 70.0563 15.2953C72.8743 17.9128 75.4097 20.8163 77.6211 23.9584C76.6921 20.4133 76.622 16.6993 77.4166 13.122C78.2629 9.77252 80.3325 6.75216 82.0976 3.70465C84.2426 -0.00781642 89.9003 0.727974 90.8813 4.89488C88.5646 6.0492 88.7677 9.596 91.624 9.66572C92.0592 17.6218 87.9771 25.592 81.3916 30.0772C85.098 37.0098 87.2772 44.649 87.7838 52.4857C87.6938 43.2532 97.1275 39.623 103.415 35.0241C103.808 34.6832 104.293 34.4635 104.809 34.3919C105.325 34.3202 105.852 34.3996 106.323 34.6204C106.795 34.8413 107.192 35.194 107.466 35.6355C107.74 36.0771 107.878 36.5884 107.865 37.1071C106.98 37.6265 106.149 38.2321 105.385 38.9149C105.027 39.239 104.779 39.6653 104.674 40.1353C104.569 40.6053 104.613 41.096 104.8 41.5402C104.986 41.9844 105.306 42.3603 105.716 42.6164C106.125 42.8725 106.605 42.9963 107.088 42.9707C104.906 51.9454 96.86 58.9392 87.7249 60.249C87.4105 64.1726 86.6873 68.053 85.5668 71.8278L72.0155 73.8194C71.9447 73.6767 71.878 73.5284 71.8121 73.385C73.078 73.2791 74.3262 73.0194 75.5288 72.6116C71.6299 69.1889 68.7674 67.5711 69.8888 61.8282L69.8892 61.8279Z" fill="#F2F2F2"/>
<path d="M83.5185 57.5036C77.3491 57.5036 74.0028 56.7533 72.8342 55.1517C71.803 53.7386 72.4943 51.8741 73.2948 49.7153C73.8701 48.1635 74.5221 46.4049 74.5221 44.6642C74.5221 36.1982 78.8355 31.9055 87.3422 31.9055C91.5747 31.9055 96.1191 34.1431 99.4987 37.8911C102.571 41.2985 104.102 45.3766 103.698 49.0795C103.367 52.1164 101.946 54.1136 99.228 55.365L99.069 55.4382L99.0238 55.2697C98.7891 54.3981 98.3917 53.5782 97.8526 52.8527C97.8001 53.9915 97.5116 55.1073 97.0053 56.1299L96.9763 56.1882L96.9136 56.2061C93.8368 57.0783 90.1853 57.3146 87.3478 57.4228C85.9668 57.4764 84.6903 57.5033 83.5185 57.5036Z" fill="#232323"/>
<path d="M85.2 69.2994C84.9635 68.6076 84.5647 67.9819 84.0366 67.4743C83.5086 66.9667 82.8665 66.5917 82.1636 66.3805C81.4608 66.1693 80.7174 66.1279 79.9953 66.2598C79.2732 66.3918 78.593 66.6932 78.0114 67.1391L57.7184 79.2137L51.3684 63.7938C51.9049 63.0106 52.1783 62.0784 52.1495 61.131C52.1207 60.1836 51.7912 59.2697 51.2081 58.5202C50.6251 57.7707 49.8186 57.2242 48.9042 56.9591C47.9898 56.694 47.0146 56.7239 46.1183 57.0445C45.2221 57.3651 44.4509 57.96 43.9154 58.7438C43.3798 59.5276 43.1075 60.46 43.1374 61.4074C43.1672 62.3548 43.4978 63.2684 44.0817 64.0172C44.6655 64.7661 45.4727 65.3116 46.3873 65.5757C46.7787 70.0223 48.9538 89.8969 56.5206 89.1744C62.8808 88.5672 78.6758 78.0983 83.5817 74.4685C84.3666 73.8883 84.9462 73.0752 85.237 72.1463C85.5278 71.2173 85.5149 70.2205 85.2 69.2994Z" fill="#C86D50"/>
<path d="M100.492 157H82.8301L79.8682 142.426L78.9075 157H62.5008C62.5071 145.555 63.1061 134.117 64.2956 122.733L64.4989 122.044L64.8202 120.941L65.0235 120.249L68.4186 108.646L68.6868 107.725H89.1311C90.3076 108.825 91.3927 110.017 92.3759 111.291C92.7089 111.714 93.0567 112.171 93.4133 112.664C93.6608 113.013 93.9172 113.38 94.1736 113.764C96.4517 117.139 98.1544 120.865 99.2133 124.792V124.795C99.393 125.467 99.5522 126.154 99.6907 126.857V126.86C99.8145 127.485 99.9235 128.118 100.009 128.766C100.074 129.239 100.13 129.717 100.171 130.201C100.417 132.882 100.331 135.583 99.9146 138.243L100.492 157Z" fill="#232323"/>
<path d="M6.8473 23.7345C7.99433 23.2926 8.67379 22.2906 8.36491 21.4965C8.05603 20.7023 6.87578 20.4168 5.72876 20.8587C4.58173 21.3006 3.90228 22.3026 4.21116 23.0967C4.52004 23.8908 5.70028 24.1763 6.8473 23.7345Z" fill="#D9D9D9"/>
<path d="M21.2893 21.8906C22.4363 21.4487 23.1158 20.4468 22.8069 19.6527C22.498 18.8585 21.3178 18.573 20.1708 19.0149C19.0237 19.4568 18.3443 20.4588 18.6532 21.2529C18.9621 22.047 20.1423 22.3325 21.2893 21.8906Z" fill="#3F3D56"/>
<path d="M5.59481 35.997C6.74184 35.5551 7.42129 34.5531 7.11241 33.759C6.80354 32.9649 5.62329 32.6793 4.47626 33.1212C3.32924 33.5631 2.64978 34.5651 2.95866 35.3592C3.26754 36.1533 4.44778 36.4389 5.59481 35.997Z" fill="#3F4D90"/>
<path d="M1.41683 41.406C1.94305 41.2821 2.2245 40.5713 2.04545 39.8185C1.86641 39.0656 1.29468 38.5558 0.768459 38.6798C0.242241 38.8038 -0.0391982 39.5145 0.139844 40.2673C0.318887 41.0202 0.890613 41.53 1.41683 41.406Z" fill="#D9D9D9"/>
<path d="M1.33089 50.5638C1.85711 50.4398 2.13855 49.7291 1.95951 48.9762C1.78047 48.2234 1.20874 47.7136 0.682522 47.8376C0.156304 47.9615 -0.125136 48.6723 0.0539069 49.4251C0.23295 50.1779 0.804675 50.6877 1.33089 50.5638Z" fill="#3F3D56"/>
<path d="M14.0062 31.5959C14.5324 31.472 14.8139 30.7612 14.6348 30.0084C14.4558 29.2556 13.8841 28.7458 13.3579 28.8697C12.8316 28.9937 12.5502 29.7045 12.7292 30.4573C12.9083 31.2101 13.48 31.7199 14.0062 31.5959Z" fill="#D9D9D9"/>
<path d="M6.4 29.7577C6.92622 29.6337 7.20766 28.923 7.02861 28.1701C6.84957 27.4173 6.27785 26.9075 5.75163 27.0315C5.22541 27.1554 4.94397 27.8662 5.12301 28.619C5.30206 29.3719 5.87378 29.8817 6.4 29.7577Z" fill="#3F4D90"/>
<path d="M14.4621 21.325C14.9883 21.2011 15.2697 20.4903 15.0907 19.7375C14.9116 18.9846 14.3399 18.4748 13.8137 18.5988C13.2875 18.7228 13.006 19.4335 13.1851 20.1863C13.3641 20.9392 13.9358 21.449 14.4621 21.325Z" fill="#3F3D56"/>
<path d="M18.2115 84.7074C18.7661 84.059 18.4565 82.8901 17.5199 82.0967C16.5833 81.3033 15.3744 81.1857 14.8198 81.8341C14.2652 82.4826 14.5749 83.6514 15.5115 84.4449C16.4481 85.2383 17.6569 85.3558 18.2115 84.7074Z" fill="#D9D9D9"/>
<path d="M9.70591 72.9462C10.2605 72.2977 9.95085 71.1289 9.01425 70.3355C8.07764 69.542 6.86878 69.4245 6.31418 70.0729C5.75958 70.7213 6.06925 71.8902 7.00585 72.6836C7.94246 73.4771 9.15131 73.5946 9.70591 72.9462Z" fill="#3F3D56"/>
<path d="M29.643 79.9648C30.1976 79.3164 29.8879 78.1475 28.9513 77.3541C28.0147 76.5606 26.8058 76.4431 26.2512 77.0915C25.6966 77.74 26.0063 78.9088 26.9429 79.7023C27.8795 80.4957 29.0884 80.6132 29.643 79.9648Z" fill="#3F4D90"/>
<path d="M35.3219 80.0947C35.9019 79.5796 36.0801 78.8365 35.72 78.435C35.3599 78.0335 34.5979 78.1256 34.018 78.6407C33.438 79.1559 33.2598 79.899 33.6199 80.3005C33.98 80.702 34.742 80.6099 35.3219 80.0947Z" fill="#D9D9D9"/>
<path d="M43.4545 75.8094C44.0345 75.2943 44.2127 74.5512 43.8526 74.1497C43.4926 73.7482 42.7305 73.8403 42.1506 74.3555C41.5706 74.8706 41.3924 75.6137 41.7525 76.0152C42.1126 76.4167 42.8746 76.3246 43.4545 75.8094Z" fill="#3F3D56"/>
<path d="M20.6595 73.748C21.2394 73.2328 21.4176 72.4897 21.0576 72.0882C20.6975 71.6867 19.9354 71.7788 19.3555 72.294C18.7756 72.8091 18.5973 73.5522 18.9574 73.9537C19.3175 74.3552 20.0795 74.2631 20.6595 73.748Z" fill="#D9D9D9"/>
<path d="M22.6569 81.2799C23.2368 80.7647 23.4151 80.0217 23.055 79.6202C22.6949 79.2187 21.9329 79.3108 21.3529 79.8259C20.773 80.3411 20.5948 81.0841 20.9548 81.4857C21.3149 81.8872 22.077 81.795 22.6569 81.2799Z" fill="#3F4D90"/>
<path d="M11.3671 78.2395C11.947 77.7243 12.1253 76.9813 11.7652 76.5797C11.4051 76.1782 10.6431 76.2704 10.0631 76.7855C9.48319 77.3007 9.30497 78.0437 9.66505 78.4453C10.0251 78.8468 10.7872 78.7546 11.3671 78.2395Z" fill="#3F3D56"/>
<path d="M75.3525 9.27519C76.1203 8.89939 76.3027 7.70428 75.7599 6.60585C75.2171 5.50741 74.1547 4.9216 73.3869 5.2974C72.6191 5.6732 72.4367 6.8683 72.9795 7.96674C73.5223 9.06517 74.5847 9.65099 75.3525 9.27519Z" fill="#D9D9D9"/>
<path d="M78.4634 23.4313C79.2312 23.0555 79.4136 21.8604 78.8708 20.762C78.328 19.6635 77.2655 19.0777 76.4977 19.4535C75.7299 19.8293 75.5475 21.0244 76.0903 22.1229C76.6332 23.2213 77.6956 23.8071 78.4634 23.4313Z" fill="#3F3D56"/>
<path d="M62.9687 9.10789C63.7365 8.73209 63.9189 7.53699 63.3761 6.43855C62.8333 5.34012 61.7709 4.7543 61.0031 5.1301C60.2353 5.5059 60.0529 6.70101 60.5957 7.79944C61.1385 8.89788 62.2009 9.48369 62.9687 9.10789Z" fill="#3F4D90"/>
<path d="M56.4596 4.61546C57.1974 4.372 57.6576 3.76053 57.4874 3.24971C57.3172 2.73888 56.5812 2.52213 55.8433 2.76559C55.1055 3.00905 54.6453 3.62053 54.8155 4.13136C54.9856 4.64219 55.7217 4.85893 56.4596 4.61546Z" fill="#D9D9D9"/>
<path d="M47.2857 5.33263C48.0235 5.08917 48.4837 4.47769 48.3135 3.96687C48.1434 3.45604 47.4073 3.2393 46.6694 3.48276C45.9316 3.72622 45.4714 4.33769 45.6416 4.84852C45.8118 5.35934 46.5479 5.57609 47.2857 5.33263Z" fill="#3F3D56"/>
<path d="M67.3819 16.2369C68.1198 15.9935 68.58 15.382 68.4098 14.8712C68.2396 14.3603 67.5035 14.1436 66.7657 14.3871C66.0278 14.6305 65.5676 15.242 65.7378 15.7528C65.908 16.2636 66.6441 16.4804 67.3819 16.2369Z" fill="#D9D9D9"/>
<path d="M68.5554 8.53514C69.2933 8.29167 69.7535 7.6802 69.5833 7.16937C69.4131 6.65855 68.677 6.44181 67.9392 6.68527C67.2013 6.92873 66.7411 7.5402 66.9113 8.05103C67.0815 8.56186 67.8176 8.7786 68.5554 8.53514Z" fill="#3F4D90"/>
<path d="M77.7025 15.7889C78.4403 15.5455 78.9005 14.934 78.7303 14.4232C78.5602 13.9123 77.8241 13.6956 77.0862 13.9391C76.3484 14.1825 75.8882 14.794 76.0584 15.3048C76.2286 15.8156 76.9647 16.0324 77.7025 15.7889Z" fill="#3F3D56"/>
<path d="M80.5348 59.8605L90.265 59.3617L94.7845 66.4688C94.7845 66.4688 103.288 67.8837 102.698 77.8561C102.109 87.8284 92.3523 96.5792 92.3523 96.5792L92.7694 101.772L92.0451 103.832L92.1379 104.989L93.1261 106.214L93.2278 107.48L92.3523 109.485L93.5429 111.404L68.5117 108.99L67.5964 105.672L68.9316 103.89L68.1858 101.565L69.3071 99.3298L69.8917 92.2286C69.8917 92.2286 63.4952 82.6647 70.8382 75.4613L73.7854 70.4751L77.083 66.4711L80.5348 59.8605Z" fill="#FEBD59"/>
<path d="M85.372 57.8537C91.0663 57.8537 95.6824 53.2597 95.6824 47.5926C95.6824 41.9256 91.0663 37.3316 85.372 37.3316C79.6778 37.3316 75.0617 41.9256 75.0617 47.5926C75.0617 53.2597 79.6778 57.8537 85.372 57.8537Z" fill="#C86D50"/>
<path d="M83.9915 46.9708C83.1031 46.9708 82.2151 46.9458 81.3276 46.896L81.169 46.8871L81.1899 46.7304C81.3206 45.751 81.247 44.7553 80.9737 43.8054C80.5096 44.887 79.8191 45.8576 78.9482 46.6525L78.899 46.6973L78.8328 46.6902C76.4224 46.4278 74.034 45.9943 71.6858 45.393L71.5959 45.37L71.5779 45.2795C71.4025 44.4224 71.3117 43.5503 71.3068 42.6756C71.3068 39.9432 72.3022 37.6434 74.1097 36.2C76.077 34.6288 78.8972 34.1455 82.0535 34.8386H92.146C93.2555 34.8398 94.3193 35.279 95.1038 36.0598C95.8884 36.8406 96.3297 37.8993 96.331 39.0035V45.3642L96.2209 45.3928C92.229 46.4369 88.119 46.9672 83.9915 46.9708Z" fill="#232323"/>
<path d="M13.6395 35.5571C13.1877 35.7215 12.8199 36.0576 12.6168 36.4916C12.4136 36.9256 12.3918 37.4221 12.556 37.8721L23.4437 67.6041C23.6089 68.0537 23.9466 68.4198 24.3827 68.622C24.8188 68.8241 25.3176 68.8459 25.7698 68.6824L68.0268 53.3558C68.4786 53.1913 68.8464 52.8552 69.0495 52.4212C69.2526 51.9872 69.2744 51.4908 69.1102 51.0408L58.2225 21.3088C58.0573 20.8591 57.7196 20.4931 57.2835 20.2909C56.8475 20.0887 56.3486 20.067 55.8964 20.2304L13.6395 35.5571Z" fill="#D9D9D9"/>
<path d="M52.2996 57.4209L26.434 66.8024C25.9473 66.9783 25.4104 66.9549 24.9411 66.7373C24.4717 66.5197 24.1083 66.1258 23.9305 65.6418L14.0554 38.6752C13.8787 38.1908 13.9022 37.6565 14.1208 37.1894C14.3394 36.7223 14.7352 36.3605 15.2215 36.1836L55.0906 21.723C55.5773 21.5471 56.1142 21.5705 56.5836 21.788C57.0529 22.0056 57.4164 22.3996 57.5942 22.8836L62.3658 35.9136C63.8914 40.0944 63.6883 44.7067 61.8012 48.7387C59.9141 52.7707 56.497 55.8931 52.2996 57.4209Z" fill="white"/>
<path d="M33.6879 37.9397L27.5414 40.1691C27.4643 40.1971 27.3824 40.2096 27.3005 40.2061C27.2185 40.2026 27.138 40.183 27.0637 40.1485C26.9893 40.1141 26.9225 40.0654 26.867 40.0052C26.8116 39.945 26.7686 39.8746 26.7405 39.7978C26.7124 39.7211 26.6998 39.6397 26.7033 39.5581C26.7068 39.4765 26.7265 39.3964 26.7611 39.3224C26.7958 39.2484 26.8447 39.1819 26.9052 39.1267C26.9657 39.0715 27.0364 39.0287 27.1135 39.0008L33.2601 36.7714C33.4157 36.7149 33.5876 36.7223 33.7378 36.792C33.888 36.8616 34.0042 36.9877 34.061 37.1427C34.1177 37.2976 34.1103 37.4686 34.0403 37.6181C33.9703 37.7676 33.8436 37.8833 33.6879 37.9397H33.6879Z" fill="#FEBD59"/>
<path d="M48.3414 35.3315L28.4163 42.5583C28.3392 42.5864 28.2573 42.5991 28.1752 42.5956C28.0932 42.5922 28.0127 42.5727 27.9382 42.5382C27.8638 42.5037 27.7969 42.455 27.7414 42.3948C27.6858 42.3346 27.6428 42.2641 27.6147 42.1873C27.5866 42.1106 27.5739 42.029 27.5775 41.9474C27.5811 41.8657 27.6008 41.7856 27.6355 41.7116C27.6702 41.6375 27.7193 41.571 27.7798 41.5158C27.8404 41.4606 27.9113 41.4179 27.9885 41.39L47.9135 34.1631C47.9906 34.1352 48.0725 34.1226 48.1544 34.1261C48.2364 34.1297 48.3169 34.1492 48.3912 34.1837C48.4656 34.2182 48.5324 34.2669 48.5879 34.3271C48.6433 34.3872 48.6863 34.4577 48.7144 34.5344C48.7425 34.6111 48.7552 34.6926 48.7516 34.7742C48.7481 34.8557 48.7284 34.9358 48.6938 35.0098C48.6591 35.0838 48.6102 35.1503 48.5497 35.2055C48.4892 35.2607 48.4185 35.3035 48.3414 35.3315Z" fill="#FEBD59"/>
<path d="M49.3457 38.074L29.4206 45.3009C29.3435 45.3288 29.2617 45.3414 29.1797 45.3379C29.0977 45.3343 29.0173 45.3148 28.9429 45.2803C28.8685 45.2458 28.8017 45.1971 28.7462 45.1369C28.6908 45.0768 28.6478 45.0063 28.6197 44.9296C28.5916 44.8529 28.579 44.7714 28.5825 44.6898C28.5861 44.6083 28.6057 44.5282 28.6404 44.4542C28.675 44.3802 28.724 44.3137 28.7844 44.2585C28.8449 44.2033 28.9157 44.1605 28.9928 44.1325L48.9178 36.9057C49.0735 36.8494 49.2452 36.857 49.3952 36.9267C49.5452 36.9963 49.6613 37.1224 49.718 37.2772C49.7747 37.432 49.7673 37.6029 49.6975 37.7523C49.6277 37.9017 49.5012 38.0174 49.3457 38.074Z" fill="#FEBD59"/>
<path d="M50.35 40.8165L30.4249 48.0434C30.3478 48.0715 30.2659 48.0841 30.1838 48.0807C30.1018 48.0772 30.0213 48.0577 29.9468 48.0232C29.8724 47.9888 29.8055 47.9401 29.75 47.8799C29.6944 47.8197 29.6514 47.7491 29.6233 47.6724C29.5952 47.5956 29.5825 47.5141 29.5861 47.4324C29.5897 47.3508 29.6094 47.2707 29.6441 47.1966C29.6788 47.1226 29.7279 47.056 29.7884 47.0009C29.849 46.9457 29.9199 46.9029 29.9971 46.8751L49.9221 39.6482C49.9992 39.6202 50.0811 39.6076 50.1631 39.6112C50.245 39.6147 50.3255 39.6343 50.3998 39.6687C50.4742 39.7032 50.541 39.7519 50.5965 39.8121C50.6519 39.8723 50.6949 39.9427 50.723 40.0195C50.7511 40.0962 50.7638 40.1776 50.7602 40.2592C50.7567 40.3408 50.737 40.4209 50.7024 40.4949C50.6677 40.5689 50.6188 40.6354 50.5583 40.6906C50.4979 40.7458 50.4271 40.7886 50.35 40.8165Z" fill="#FEBD59"/>
<path d="M51.3543 43.5591L31.4292 50.7859C31.2735 50.8424 31.1017 50.835 30.9515 50.7654C30.8013 50.6957 30.685 50.5696 30.6283 50.4147C30.5716 50.2597 30.579 50.0887 30.649 49.9392C30.7189 49.7898 30.8457 49.6741 31.0013 49.6176L50.9264 42.3907C51.0035 42.3628 51.0854 42.3502 51.1674 42.3537C51.2493 42.3573 51.3298 42.3768 51.4041 42.4113C51.4785 42.4458 51.5453 42.4945 51.6008 42.5547C51.6562 42.6148 51.6992 42.6853 51.7273 42.762C51.7554 42.8387 51.7681 42.9202 51.7645 43.0018C51.761 43.0833 51.7413 43.1634 51.7067 43.2374C51.672 43.3114 51.6231 43.3779 51.5626 43.4331C51.5022 43.4883 51.4313 43.5311 51.3543 43.5591H51.3543Z" fill="#FEBD59"/>
<path d="M114.577 51.1757L103.667 77.1566C103.202 78.256 102.321 79.1292 101.214 79.5877C100.108 80.0462 98.8642 80.0533 97.7524 79.6075C97.1772 79.3769 96.6552 79.0321 96.2183 78.5942C95.7814 78.1562 95.4386 77.6343 95.211 77.0602C94.9833 76.4862 94.8756 75.872 94.8942 75.2551C94.9129 74.6382 95.0576 74.0316 95.3195 73.4722L107.483 46.8301L114.188 30.3313C113.609 29.7561 113.221 29.0175 113.078 28.2156C112.935 27.4136 113.044 26.5874 113.389 25.8491C113.735 25.1108 114.3 24.4962 115.009 24.0888C115.717 23.6814 116.535 23.501 117.35 23.572C118.165 23.6431 118.939 23.9622 119.565 24.4859C120.192 25.0097 120.641 25.7128 120.852 26.4996C121.064 27.2864 121.026 28.1189 120.745 28.8839C120.465 29.6488 119.954 30.3093 119.283 30.7754L114.577 51.1757Z" fill="#C86D50"/>
</g>
<defs>
<clipPath id="clip0_844_847">
<rect width="139" height="157" fill="white"/>
</clipPath>
</defs>
</svg>
